<svg width="364" height="64" viewBox="0 0 364 64" fill="none" xmlns="http://www.w3.org/2000/svg">
<path d="M38.0137 5.90234H22.4746V49H16.1328V5.90234H0.626953V0.65625H38.0137V5.90234ZM79.1191 5.90234H63.5801V49H57.2383V5.90234H41.7324V0.65625H79.1191V5.90234ZM120.225 5.90234H104.686V49H98.3438V5.90234H82.8379V0.65625H120.225V5.90234ZM168.668 18.0547H156.615V49H150.473V18.0547H138.652V13.0742H168.668V18.0547ZM186.797 40.002L195.164 13.0742H201.738L187.295 54.5449C185.059 60.5215 181.507 63.5098 176.637 63.5098L175.475 63.4102L173.184 62.9785V57.998L174.844 58.1309C176.924 58.1309 178.54 57.7103 179.691 56.8691C180.865 56.028 181.827 54.4896 182.58 52.2539L183.941 48.6016L171.125 13.0742H177.832L186.797 40.002ZM237.598 31.4355C237.598 36.903 236.347 41.3079 233.846 44.6504C231.344 47.9928 227.958 49.6641 223.686 49.6641C219.325 49.6641 215.894 48.2806 213.393 45.5137V62.8125H207.25V13.0742H212.861L213.16 17.0586C215.661 13.9596 219.137 12.4102 223.586 12.4102C227.902 12.4102 231.311 14.0371 233.812 17.291C236.336 20.5449 237.598 25.0716 237.598 30.8711V31.4355ZM231.455 30.7383C231.455 26.6875 230.592 23.4889 228.865 21.1426C227.139 18.7962 224.77 17.623 221.76 17.623C218.041 17.623 215.252 19.2721 213.393 22.5703V39.7363C215.23 43.0124 218.041 44.6504 221.826 44.6504C224.77 44.6504 227.105 43.4883 228.832 41.1641C230.581 38.8177 231.455 35.3424 231.455 30.7383ZM267.613 49C267.259 48.2917 266.971 47.0299 266.75 45.2148C263.895 48.181 260.486 49.6641 256.523 49.6641C252.982 49.6641 250.071 48.668 247.791 46.6758C245.533 44.6615 244.404 42.1159 244.404 39.0391C244.404 35.2982 245.821 32.3984 248.654 30.3398C251.51 28.2591 255.516 27.2188 260.674 27.2188H266.65V24.3965C266.65 22.2493 266.008 20.5449 264.725 19.2832C263.441 17.9993 261.548 17.3574 259.047 17.3574C256.855 17.3574 255.018 17.9108 253.535 19.0176C252.052 20.1243 251.311 21.4635 251.311 23.0352H245.135C245.135 21.2422 245.766 19.5156 247.027 17.8555C248.311 16.1732 250.038 14.8451 252.207 13.8711C254.398 12.8971 256.8 12.4102 259.412 12.4102C263.551 12.4102 266.794 13.4505 269.141 15.5312C271.487 17.5898 272.704 20.4342 272.793 24.0645V40.5996C272.793 43.8978 273.214 46.5208 274.055 48.4688V49H267.613ZM257.42 44.3184C259.346 44.3184 261.172 43.8203 262.898 42.8242C264.625 41.8281 265.876 40.5332 266.65 38.9395V31.5684H261.836C254.31 31.5684 250.547 33.7708 250.547 38.1758C250.547 40.1016 251.189 41.6068 252.473 42.6914C253.757 43.776 255.406 44.3184 257.42 44.3184ZM311.873 13.0742V49H305.697V18.1543H293.479L292.748 31.6016C292.35 37.7773 291.309 42.1934 289.627 44.8496C287.967 47.5059 285.322 48.8893 281.691 49H279.234V43.5879L280.994 43.4551C282.986 43.2337 284.414 42.0827 285.277 40.002C286.141 37.9212 286.694 34.0697 286.938 28.4473L287.602 13.0742H311.873ZM328.441 25.459H337.771C341.844 25.5033 345.065 26.5658 347.434 28.6465C349.802 30.7272 350.986 33.5495 350.986 37.1133C350.986 40.6992 349.769 43.5768 347.334 45.7461C344.899 47.9154 341.623 49 337.506 49H322.299V13.0742H328.441V25.459ZM363.803 49H357.627V13.0742H363.803V49ZM328.441 30.4727V43.9863H337.572C339.874 43.9863 341.656 43.3997 342.918 42.2266C344.18 41.0312 344.811 39.4043 344.811 37.3457C344.811 35.3535 344.191 33.7266 342.951 32.4648C341.734 31.181 340.018 30.5169 337.805 30.4727H328.441Z" fill="#FA1451"/>
</svg>
