<svg width="643" height="197" viewBox="0 0 643 197" fill="none" xmlns="http://www.w3.org/2000/svg">
<path d="M19.1 48.5C18.7667 49.2333 18.4 49.9667 18 50.7C17.6667 51.4333 17 51.9667 16 52.3C15.7333 51.7667 15.6333 51.2667 15.7 50.8C15.7667 50.2667 15.7667 49.7333 15.7 49.2C15.5 48.6667 15.2667 48.1667 15 47.7C14.8 47.1667 15 46.6333 15.6 46.1C15.9333 45.9 16.0333 45.5667 15.9 45.1C15.6333 44.1667 15.7333 43.4667 16.2 43C16.7333 42.4667 17.3333 42 18 41.6C18.6 39.8667 19.3 38.2333 20.1 36.7C20.9667 35.1 21.8333 33.5 22.7 31.9C22.9667 31.3667 23.2 30.8667 23.4 30.4C23.6 29.8667 23.8 29.3333 24 28.8C24.4667 27.6667 25.2333 27.1333 26.3 27.2C26.2333 26.8667 26.2 26.5667 26.2 26.3C26.2 26.0333 26.2 25.7333 26.2 25.4C26.2 24.3333 26.5667 23.6 27.3 23.2C27.9667 22.8667 28.4667 22.4667 28.8 22C29.1333 21.4667 29.5333 20.9333 30 20.4C30.0667 19.6667 30.1333 19.2667 30.2 19.2C30.3333 19.0667 30.7667 18.9333 31.5 18.8C31.5 17.2 32.2 15.8 33.6 14.6C34.4667 13.7333 34.7667 12.8333 34.5 11.9C34.4333 11.8333 34.4 11.7667 34.4 11.7C34.2 11.8333 33.9667 11.9333 33.7 12C33.5 12 33.2667 12.0667 33 12.2C32.4667 12.4 32 12.6667 31.6 13C31.2 13.2667 30.9667 13.7667 30.9 14.5C30.9 14.6333 30.8 14.7667 30.6 14.9C30.4667 15.0333 30.3333 15.1667 30.2 15.3C29.0667 16.0333 27.9 16.7667 26.7 17.5C25.5 18.1667 24.3333 18.8667 23.2 19.6C22.8667 19.7333 22.6 19.9 22.4 20.1C22.2 20.3 22 20.5 21.8 20.7C21.2667 21.1667 20.7333 21.6 20.2 22C19.7333 22.4 19.1333 22.7 18.4 22.9C17.2667 23.3 16.2333 23.9667 15.3 24.9C14.4333 25.8333 13.5 26.6667 12.5 27.4C11.5 28.1333 10.6333 29.0667 9.9 30.2C9.5 30.8667 8.93333 31.2333 8.2 31.3C7.46667 31.3 6.86667 30.9333 6.4 30.2C5.86667 29.4 5.23333 28.7333 4.5 28.2C3.76667 27.6667 3.03333 27.1 2.3 26.5C0.966667 25.5 0.533333 24.1667 1 22.5C1.2 21.7667 1.43333 21.0667 1.7 20.4C1.96667 19.7333 2.56667 19.3333 3.5 19.2C4.23333 17.8667 5.23333 16.9333 6.5 16.4C7.83333 15.8 9.1 15.1333 10.3 14.4C11.5 13.7333 12.6667 13.4333 13.8 13.5C14.3333 13.5667 14.8 13.5667 15.2 13.5C15.6667 13.3667 16.0667 13.0333 16.4 12.5C16.7333 11.9667 17.0667 11.6 17.4 11.4C17.8 11.1333 18.3667 11.1667 19.1 11.5C19.5667 11.6333 20.0333 11.6333 20.5 11.5C21.0333 11.3 21.5333 11.0667 22 10.8C22.5333 9.79999 23.2333 9.29999 24.1 9.29999C24.9667 9.29999 25.8 9.36666 26.6 9.5C27.1333 9.63333 27.5667 9.7 27.9 9.7C28.2333 9.63333 28.5667 9.43333 28.9 9.1C29.1667 8.76666 29.4333 8.53333 29.7 8.39999C29.9667 8.26666 30.2333 8.5 30.5 9.1C30.6333 9.36666 30.7667 9.43333 30.9 9.29999C31.0333 9.16666 31.1667 9.06666 31.3 9C31.6333 8.73333 31.9667 8.5 32.3 8.3C32.7 8.09999 33.1 7.86666 33.5 7.6C34.1667 7.26666 34.7333 7.26666 35.2 7.6C35.6 7.86666 35.9 8.03333 36.1 8.1C36.5667 7.56666 37 7.06666 37.4 6.59999C37.8667 6.06666 38.2667 5.5 38.6 4.9C39.7333 5.03333 40.6 5.43333 41.2 6.09999C41.8667 6.69999 42.3667 7.46666 42.7 8.39999C43.1667 9.46666 43.5667 10.6333 43.9 11.9C44.1667 12.9 43.9667 13.8333 43.3 14.7C42.4333 15.8333 41.6 16.9667 40.8 18.1C40.0667 19.2333 39.3333 20.3667 38.6 21.5C38.2667 21.9667 37.9 22.4333 37.5 22.9C37.1667 23.3 36.9 23.7667 36.7 24.3C36.1 26.2333 35.0667 27.9 33.6 29.3C32.2 30.6333 30.9333 32.0333 29.8 33.5C29.4 34.0333 28.9667 34.5667 28.5 35.1C28.1 35.5667 27.7333 36.1 27.4 36.7C27.0667 37.4333 26.6333 38.1333 26.1 38.8C25.6333 39.4 25.1667 40.0667 24.7 40.8C24.4333 41.1333 24.1667 41.5 23.9 41.9C23.7 42.3 23.4333 42.6 23.1 42.8C22.0333 43.5333 21.2 44.4 20.6 45.4C20.0667 46.3333 19.5667 47.3667 19.1 48.5ZM61.2 57.7C61.7333 58.7 62 59.7 62 60.7C62 61.7 61.8667 62.7333 61.6 63.8C61.4 64.6667 60.9333 65 60.2 64.8C59.8667 64.7333 59.5 64.7 59.1 64.7C58.7 64.6333 58.3333 64.5333 58 64.4C57.4667 64.0667 56.9667 63.8667 56.5 63.8C56.1 63.6667 55.6333 63.8667 55.1 64.4C54.6333 64.7333 54.1 64.6 53.5 64C53.2333 63.6667 52.9333 63.5333 52.6 63.6C52.3333 63.6667 52.0333 63.7667 51.7 63.9C50.6333 65.3 49.2667 65.6667 47.6 65C47.2 64.8 46.8 64.7333 46.4 64.8C46.0667 64.8667 45.7333 64.9333 45.4 65C45 65.0667 44.6 65.1333 44.2 65.2C44.1333 65.6 44.1667 66 44.3 66.4C44.4333 67.0667 44.0667 67.6 43.2 68C43.5333 68.4 43.7 68.7 43.7 68.9C43.7 69.1 43.6 69.2333 43.4 69.3C43.2667 69.3667 43.0667 69.4333 42.8 69.5C42.5333 69.5 42.3333 69.5333 42.2 69.6C42.0667 69.8667 42.0333 70.1333 42.1 70.4C42.1667 70.6 42.0333 70.7667 41.7 70.9C41.1667 71.4333 40.8667 72.1 40.8 72.9C40.7333 73.6333 40.4 74.2667 39.8 74.8C39.5333 75.1333 39.4667 75.3667 39.6 75.5C39.7333 75.5667 39.9 75.6333 40.1 75.7C40.3667 75.7 40.5667 75.7333 40.7 75.8C40.9 75.8667 40.9 76.0333 40.7 76.3C40.5 76.5667 40.1667 76.6667 39.7 76.6C39.3 76.5333 39.1333 76.8333 39.2 77.5C39.3333 78.0333 39.3667 78.5667 39.3 79.1C39.2333 79.6333 38.7333 79.9 37.8 79.9C37.6667 79.9 37.6 80 37.6 80.2C37.6 80.3333 37.6667 80.5 37.8 80.7C38.0667 81.0333 38.2 81.3333 38.2 81.6C38.2 81.8667 38.1333 82.1333 38 82.4C37.8667 82.6667 37.7 82.9333 37.5 83.2C37.3 83.4 37.1667 83.6333 37.1 83.9C36.9667 84.3667 36.7 84.4333 36.3 84.1C35.9667 83.7 35.5333 83.3667 35 83.1C35.4 84.1667 35.5333 85.1667 35.4 86.1C35.3333 86.9667 35.1333 87.8 34.8 88.6C34.4667 89.3333 34.0333 90.0667 33.5 90.8C33.0333 91.5333 32.6 92.2667 32.2 93C31.9333 93.5333 31.6667 94.0667 31.4 94.6C31.1333 95.0667 30.7 95.4667 30.1 95.8L30.5 96.2C29.8333 96.8 29.3333 97.4667 29 98.2C28.6667 98.9333 28.4 99.7 28.2 100.5C28.0667 101.3 27.9333 102.1 27.8 102.9C27.6667 103.7 27.4667 104.467 27.2 105.2C27.2 105.333 27.1333 105.4 27 105.4C26.8667 105.733 26.7 106 26.5 106.2C26.3 106.4 26.0333 106.367 25.7 106.1C23.7 104.967 22.5667 103.333 22.3 101.2C21.1667 99 20.5667 96.8333 20.5 94.7C20.5 92.5667 21.0667 90.3333 22.2 88C22.8667 86.6667 23.6 85.3667 24.4 84.1C25.2667 82.8333 25.9 81.4333 26.3 79.9C26.4333 79.3667 26.6667 78.9667 27 78.7C27.3333 78.4333 27.7667 78.2333 28.3 78.1C28.4333 77.7667 28.6333 77.3333 28.9 76.8C29.2333 75.6667 29.6667 74.6 30.2 73.6C30.8 72.5333 31.4 71.5 32 70.5C32.6 69.7 33.1 68.8 33.5 67.8C33.1667 68 32.8 68.1333 32.4 68.2C32 68.2667 31.6333 68.3667 31.3 68.5C29.8333 69.6333 28.2667 70.4 26.6 70.8C24.9333 71.1333 23.2333 71.5333 21.5 72C20.5667 72.2667 19.8667 72.2667 19.4 72C18.9333 71.6667 18.5667 71.0333 18.3 70.1C18.1667 69.5667 18.0333 69 17.9 68.4C17.7667 67.8 17.6667 67.2 17.6 66.6C17.5333 65.3333 17.9333 64.4 18.8 63.8C19.6667 63.1333 20.7667 62.9667 22.1 63.3C22.2333 63.3 22.3333 63.3667 22.4 63.5C22.5333 63.6333 22.6667 63.7 22.8 63.7C23.6667 63.5667 24.5 63.4333 25.3 63.3C26.1 63.1667 26.9667 63.2333 27.9 63.5C28.6333 63.7 29.4333 63.7 30.3 63.5C31.1667 63.2333 31.9667 62.8667 32.7 62.4C32.8333 62.2 32.9 62.0333 32.9 61.9C32.9667 61.7 33.1667 61.6 33.5 61.6C34.4333 61.6667 35.5 61.6 36.7 61.4C36.9667 60.7333 37.4 60.1333 38 59.6C38.5333 57.8667 39.2333 56.2333 40.1 54.7C41.0333 53.1 41.6667 51.4333 42 49.7C42.0667 49.5667 42.2 49.4333 42.4 49.3C42.6 49.1 42.7667 48.9333 42.9 48.8L43.1 48.7C43.1 48.5 43.1333 48.3333 43.2 48.2L43.4 47.8C44 47 44.4667 46.1667 44.8 45.3C45.2 44.3667 45.4 43.3667 45.4 42.3C45.4667 41.1667 45.6667 40.1333 46 39.2C46.3333 38.2 46.9667 37.3333 47.9 36.6C48.4333 36.1333 48.8 35.6 49 35C49.2667 34.3333 49.5333 33.7 49.8 33.1C49.9333 32.9667 49.9333 32.8 49.8 32.6C49.6667 32.4 49.5667 32.2333 49.5 32.1C49.0333 32.3667 48.6333 32.6667 48.3 33C47.9667 33.2667 47.7 33.6667 47.5 34.2C47.3667 34.6 47.0333 34.9 46.5 35.1C46.0333 35.3 45.6 35.5667 45.2 35.9C45.0667 36.6333 44.7333 37.2333 44.2 37.7C43.7333 38.1667 43.2 38.5333 42.6 38.8C41.9333 39.1333 41.3333 39.4667 40.8 39.8C40.3333 40.1333 39.9333 40.6333 39.6 41.3C39.4667 41.5 39.2667 41.7 39 41.9C38.8 42.1 38.6333 42.2 38.5 42.2C37.7 41.8667 37.2 41.9333 37 42.4C36.8 42.8 36.5667 43.2667 36.3 43.8C35.7667 45 35.0333 46.0667 34.1 47C33.2333 47.8667 32.1333 48.5 30.8 48.9C30.7333 49.0333 30.7 49.1667 30.7 49.3C30.7 49.3667 30.6333 49.4333 30.5 49.5C29.2333 50.5667 27.9667 51.6 26.7 52.6C25.5 53.6 24.2333 54.5667 22.9 55.5C22.1 56.1 21.4 56.4 20.8 56.4C20.2667 56.3333 19.6333 56 18.9 55.4C18.5 55.0667 18.0667 54.7 17.6 54.3C17.2 53.9 16.8667 53.3667 16.6 52.7C18.1333 51.9 19.6667 51.1 21.2 50.3C22.8 49.4333 24.4 48.6 26 47.8C26.3333 47.4 26.7 47.1333 27.1 47C27.5667 46.8 28 46.6 28.4 46.4C28.5333 45.8667 28.6333 45.5667 28.7 45.5C28.8333 45.4333 29.2333 45.4667 29.9 45.6C30.2333 44.6667 30.7667 44 31.5 43.6C32.2333 43.2 32.9333 42.7333 33.6 42.2C33.8 42.0667 33.9667 41.9 34.1 41.7C34.2333 41.5 34.4 41.3333 34.6 41.2C34.8 40.4667 35 39.7333 35.2 39C35.4667 38.2667 36.1 37.8 37.1 37.6C37.4333 37.5333 37.7333 37.3667 38 37.1L38.8 36.3C39.0667 36.0333 39.3333 35.8 39.6 35.6C39.9333 35.4 40.3333 35.3 40.8 35.3C41 35.3 41.1 35.2 41.1 35C41.1667 34.7333 41.2 34.5333 41.2 34.4C41.3333 33.2667 41.8333 32.4667 42.7 32C43.3 31.6 43.9 31.2333 44.5 30.9C45.1667 30.5 45.7667 30.0333 46.3 29.5C46.8333 28.9667 47.3333 28.4667 47.8 28C48.3333 27.5333 48.9333 27.1333 49.6 26.8C50.2667 26.2 50.9 25.6 51.5 25C52.1 24.3333 52.7333 23.6667 53.4 23C53.4 22.5333 53.6333 22.3 54.1 22.3V22.2C54.1 21.7333 54.3667 21.5 54.9 21.5L56.1 19.9C56.5 19.3667 56.9667 18.8667 57.5 18.4C58.6333 17.2667 59.6 16.1 60.4 14.9C61.2 13.7 61.9333 12.4 62.6 11C62.8 10.6667 63.0333 10.3333 63.3 10C63.5667 9.59999 63.8333 9.23333 64.1 8.89999C64.1667 8.83333 64.2667 8.86666 64.4 9C64.5333 9.06666 64.6667 9.13333 64.8 9.2C64.9333 9.26666 65.0333 9.26666 65.1 9.2C65.2333 9.13333 65.3 8.9 65.3 8.49999C65.3667 8.09999 65.5333 7.7 65.8 7.3C66.0667 6.9 66.3333 6.53333 66.6 6.19999C66.8 5.86666 67.0333 5.59999 67.3 5.4C67.6333 5.2 67.8 4.86666 67.8 4.4C67.8 3.66666 68 3.1 68.4 2.7C68.8667 2.23333 69.2 1.69999 69.4 1.09999C69.5333 0.76666 69.7667 0.566661 70.1 0.499995C70.5 0.433329 70.8 0.53333 71 0.799997C71.7333 1.53333 72.4 2.3 73 3.1C73.6667 3.89999 74.1667 4.86666 74.5 6C74.7 6.8 74.8 7.56666 74.8 8.3C74.8667 8.96666 74.7 9.63333 74.3 10.3C73.7 11.3667 73.1 12.4667 72.5 13.6C71.9667 14.6667 71.1667 15.6 70.1 16.4C69.6333 16.7333 69.2667 17.1667 69 17.7C68.7333 18.1667 68.5 18.6667 68.3 19.2C68.1667 19.6 68.0333 20.0333 67.9 20.5C67.8333 20.9 67.6667 21.2667 67.4 21.6C66.2667 22.8 65.3333 24.1333 64.6 25.6C63.9333 27.0667 63.1333 28.4667 62.2 29.8C61.3333 31.1333 60.5333 32.5 59.8 33.9C59.0667 35.2333 58.3333 36.5667 57.6 37.9C56.8 39.2333 56 40.5667 55.2 41.9C54.4 43.1667 53.4667 44.3667 52.4 45.5L51.6 47.9C51.6667 48.0333 51.6667 48.1333 51.6 48.2V48.3C51.9333 48.6333 52.0333 49 51.9 49.4C51.8333 49.7333 51.5333 50 51 50.2C50.8 50.2667 50.5 50.4333 50.1 50.7C49.8333 51.3667 49.5667 52.0333 49.3 52.7C49.1 53.3667 48.8333 54.0333 48.5 54.7C48.4333 55.3667 48.2667 55.9333 48 56.4C47.8 56.8667 47.2667 57.1667 46.4 57.3C46.2667 57.3 46.1 57.3667 45.9 57.5C45.7667 57.5667 45.6333 57.7 45.5 57.9C45.3667 58.0333 45.3 58.2333 45.3 58.5C45.3 58.7667 45.4333 59.0667 45.7 59.4C45.7667 59.5333 45.8333 59.6667 45.9 59.8H46.3C46.9 59.8 47.5333 59.6667 48.2 59.4C48.6667 59.2 48.8667 59.3 48.8 59.7C48.8 60.0333 48.9333 60.2333 49.2 60.3C49.6667 60.0333 50.0333 60.1 50.3 60.5C50.5667 60.8333 50.8667 61.1333 51.2 61.4C51.4 61.0667 51.4 60.7667 51.2 60.5C51 60.2333 50.9333 59.9667 51 59.7C51.1333 59.3667 51.3333 59.1667 51.6 59.1C51.9333 59.0333 52.2333 58.9333 52.5 58.8C53.9 58.4 55.2667 57.9333 56.6 57.4C58 56.8667 59.3667 56.4667 60.7 56.2C61.0333 56.4667 61.1667 56.7333 61.1 57C61.0333 57.2667 61.0667 57.5 61.2 57.7ZM102.049 79.1C102.383 79.2333 102.616 79.5667 102.749 80.1C102.883 80.6333 102.883 81.0667 102.749 81.4C102.483 81.8667 102.216 82.2 101.949 82.4C100.416 83.2667 98.9826 84.2667 97.6492 85.4C96.3826 86.4667 94.9159 87.3 93.2492 87.9C92.7826 88.4333 92.2492 88.9 91.6492 89.3C91.0492 89.6333 90.4492 89.9667 89.8492 90.3C88.8492 90.8333 87.8159 91.3333 86.7492 91.8C85.6826 92.2 84.7492 92.8333 83.9492 93.7C83.7492 93.9 83.3826 94.1333 82.8492 94.4C82.3159 94.5333 81.7492 94.7333 81.1492 95C80.6159 95.2 80.1159 95.2 79.6492 95C78.9159 94.7333 78.2826 94.3 77.7492 93.7C77.2159 93.0333 76.8826 92.3 76.7492 91.5C76.5492 90.3667 76.4492 89.2667 76.4492 88.2C76.4492 87.0667 76.7492 85.9333 77.3492 84.8C78.0826 83.4667 78.7159 82.0667 79.2492 80.6C79.7826 79.1333 80.3826 77.6667 81.0492 76.2C80.5159 76.2 80.0492 76.3 79.6492 76.5C79.3159 76.7 79.0826 76.9333 78.9492 77.2C77.9492 78.8 76.7492 80.2333 75.3492 81.5C73.9492 82.7667 72.6492 84.1 71.4492 85.5C70.3159 86.8333 69.1159 88.1667 67.8492 89.5C66.6492 90.7667 65.4159 92.0333 64.1492 93.3L63.8492 93.6C61.7826 94.7333 59.9159 96.0667 58.2492 97.6C56.5826 99.1333 54.7492 100.467 52.7492 101.6C52.0159 102 51.4826 102.167 51.1492 102.1C50.8159 102.033 50.3492 101.733 49.7492 101.2C48.3492 99.8667 47.5492 98.4333 47.3492 96.9C47.0826 95.3667 47.2159 93.7667 47.7492 92.1C48.0159 91.2333 48.3159 90.3667 48.6492 89.5C48.9826 88.6333 49.4826 87.8333 50.1492 87.1C50.4159 85.5 51.2492 84.1667 52.6492 83.1C53.6492 81.7667 54.6492 80.4667 55.6492 79.2C56.6492 77.9333 57.6826 76.6333 58.7492 75.3C59.3492 74.5667 60.0492 74.6 60.8492 75.4C61.2492 75.8 61.5492 76.1333 61.7492 76.4C63.8159 79.2 63.6492 81.7333 61.2492 84C59.9159 85.2667 58.7492 86.6333 57.7492 88.1C56.6826 89.5 55.6159 90.9667 54.5492 92.5C54.4159 92.6333 54.3492 92.8333 54.3492 93.1C54.3492 93.3 54.3159 93.5667 54.2492 93.9C55.3159 93.5667 56.2492 93.1 57.0492 92.5C57.7826 91.9 58.5492 91.3333 59.3492 90.8C60.8159 89.8 62.2159 88.7667 63.5492 87.7C64.8826 86.6333 66.1159 85.4333 67.2492 84.1C68.5826 82.5667 69.9826 81.1333 71.4492 79.8C72.9159 78.4667 74.3492 77.1 75.7492 75.7C77.4826 73.9667 79.1492 72.2 80.7492 70.4C82.4159 68.6 84.0159 66.7333 85.5492 64.8C86.2826 63.9333 86.9492 63.0333 87.5492 62.1C88.1492 61.1 88.9826 60.3 90.0492 59.7C90.1159 59.4333 90.1826 59.1667 90.2492 58.9C90.3826 58.6333 90.4826 58.3667 90.5492 58.1C90.6159 57.8333 90.5826 57.6 90.4492 57.4C90.3159 57.1333 90.1492 57.0667 89.9492 57.2C89.4159 57.4 88.8826 57.5667 88.3492 57.7C87.8159 57.7667 87.2826 57.8333 86.7492 57.9C86.2159 57.9667 85.6826 58.0667 85.1492 58.2C84.6826 58.3333 84.2492 58.6 83.8492 59C83.3159 59.5333 82.7159 59.7667 82.0492 59.7C81.3826 59.6333 80.7492 59.7 80.1492 59.9C78.8159 60.3 77.4826 60.7667 76.1492 61.3C74.8826 61.7667 73.7492 62.5667 72.7492 63.7C72.3492 64.1667 71.9492 64.3667 71.5492 64.3C71.2159 64.1667 70.9492 63.8333 70.7492 63.3C70.0159 61.7667 69.8159 60.3667 70.1492 59.1C70.5492 57.7667 71.7159 56.5667 73.6492 55.5C74.2492 55.2333 74.9159 55.0333 75.6492 54.9C76.1159 54.7667 76.5492 54.7 76.9492 54.7C77.4159 54.6333 77.8159 54.5 78.1492 54.3C79.3492 53.5667 80.6159 53.2333 81.9492 53.3C83.3492 53.3 84.6826 53.1 85.9492 52.7C86.2159 52.5667 86.5159 52.5 86.8492 52.5C87.1826 52.4333 87.4159 52.4667 87.5492 52.6C88.3492 53.2 89.0826 53.4333 89.7492 53.3C90.4159 53.1667 91.1159 52.9 91.8492 52.5C93.0492 51.8333 94.2492 51.6333 95.4492 51.9C96.7159 52.1667 97.9159 52.4667 99.0492 52.8C99.4492 52.9333 99.8826 53.0667 100.349 53.2C100.883 53.3333 101.383 53.5 101.849 53.7C101.916 53.7667 102.049 53.9667 102.249 54.3C102.316 54.5667 102.283 54.7 102.149 54.7C102.016 54.6333 101.883 54.6333 101.749 54.7C100.816 55.0333 100.183 55.3667 99.8492 55.7C99.5826 56.0333 99.4826 56.5667 99.5492 57.3C99.6159 57.8333 99.6826 58.3333 99.7492 58.8C99.8159 59.2667 99.8826 59.7667 99.9492 60.3C100.016 61.0333 99.9159 61.6667 99.6492 62.2C99.4492 62.7333 99.0159 63.1667 98.3492 63.5C98.2159 64.2333 97.9159 64.9 97.4492 65.5C96.9826 66.0333 96.5159 66.5667 96.0492 67.1C95.2492 68.0333 94.4159 68.9667 93.5492 69.9C92.7492 70.7667 91.9826 71.6667 91.2492 72.6C90.7826 73.2667 90.3826 73.9333 90.0492 74.6C89.7159 75.2667 89.3492 75.9667 88.9492 76.7C88.0826 78.3667 87.2159 80.0333 86.3492 81.7C85.4826 83.3 84.6159 84.9333 83.7492 86.6C83.4826 87.1333 83.5826 87.5 84.0492 87.7C84.1826 87.7667 84.3159 87.8 84.4492 87.8C84.5826 87.8 84.7159 87.8 84.8492 87.8L86.9492 87.2C88.4159 86.2667 89.8826 85.4 91.3492 84.6C92.8159 83.8 94.3492 83.0667 95.9492 82.4C96.8159 82.0667 97.6159 81.6333 98.3492 81.1C99.0826 80.5 99.8159 79.9333 100.549 79.4C101.083 78.8667 101.583 78.7667 102.049 79.1ZM138.717 65.1C139.651 66.4333 139.851 67.6 139.317 68.6C138.851 69.6 138.151 70.5667 137.217 71.5C136.351 72.4333 135.517 73.4333 134.717 74.5C133.917 75.5667 133.151 76.6333 132.417 77.7C131.684 78.8333 130.884 79.8667 130.017 80.8C129.217 81.7333 128.351 82.6 127.417 83.4C126.817 83.9333 126.217 84.4667 125.617 85C125.084 85.5333 124.584 86.1333 124.117 86.8C123.517 87.6 122.851 88.2667 122.117 88.8C121.451 89.3333 120.751 89.8 120.017 90.2C119.284 90.6 118.484 91 117.617 91.4C116.817 91.7333 115.984 92.1333 115.117 92.6C114.851 92.7333 114.384 92.9667 113.717 93.3C113.117 93.5667 112.484 93.8667 111.817 94.2C111.151 94.4667 110.484 94.7333 109.817 95C109.217 95.2 108.784 95.3333 108.517 95.4C108.317 95.4667 108.017 95.4 107.617 95.2C107.217 95 106.817 94.7333 106.417 94.4C106.017 94.0667 105.651 93.7333 105.317 93.4C104.984 93 104.784 92.6333 104.717 92.3C104.384 91.5667 104.251 90.8667 104.317 90.2C104.384 89.5333 104.884 89.1 105.817 88.9C107.684 88.4333 109.317 87.9333 110.717 87.4C112.184 86.8667 113.517 86.2333 114.717 85.5C115.984 84.7 117.217 83.8 118.417 82.8C119.684 81.8 121.084 80.6 122.617 79.2C124.151 77.8 125.484 76.2333 126.617 74.5C127.817 72.7667 128.984 71.0333 130.117 69.3C130.384 68.9667 130.617 68.6333 130.817 68.3C131.084 67.9 131.384 67.5333 131.717 67.2C131.317 66.5333 130.851 66.2 130.317 66.2C129.851 66.2 129.417 66.3667 129.017 66.7C128.351 67.3667 127.651 67.9667 126.917 68.5C126.184 69.0333 125.451 69.6 124.717 70.2C123.984 70.7333 123.284 71.3333 122.617 72C122.017 72.6667 121.517 73.4333 121.117 74.3C120.784 74.8333 120.184 75.1667 119.317 75.3C118.517 75.3667 118.117 75.8333 118.117 76.7C118.117 76.9 118.017 77.1333 117.817 77.4C117.617 77.6 117.451 77.7 117.317 77.7C116.584 78.0333 115.884 78.4333 115.217 78.9C114.617 79.3667 113.851 79.6 112.917 79.6C112.917 80.8667 112.284 81.7 111.017 82.1C110.551 82.7667 110.084 83.4 109.617 84C109.151 84.6 108.651 85.2 108.117 85.8C106.984 86.8667 105.984 87.9667 105.117 89.1C104.251 90.2333 103.351 91.3667 102.417 92.5C102.084 92.8333 101.817 93.2333 101.617 93.7C101.417 94.1667 101.051 94.5333 100.517 94.8C100.451 95.1333 100.417 95.4333 100.417 95.7C100.351 95.9667 100.251 96.2333 100.117 96.5C99.7172 97.5667 99.0505 97.7333 98.1172 97C97.9172 96.9333 97.8172 96.8333 97.8172 96.7C96.8839 95.6333 96.1172 94.7667 95.5172 94.1C94.8505 93.3667 94.4505 92.6333 94.3172 91.9C94.1839 91.1667 94.3172 90.2667 94.7172 89.2C95.0505 88.1333 95.7172 86.7 96.7172 84.9C97.4505 83.7667 98.1505 82.6667 98.8172 81.6C99.4172 80.4667 100.084 79.3333 100.817 78.2C101.151 77.6667 101.584 77.2333 102.117 76.9C102.651 76.5667 103.217 76.2333 103.817 75.9C103.817 75.7 103.851 75.5667 103.917 75.5C104.784 72.5 106.251 70.0333 108.317 68.1C108.184 67.9667 108.084 67.9 108.017 67.9C107.884 67.9 107.784 67.8333 107.717 67.7C107.584 67.3667 107.751 67.1333 108.217 67C108.351 66.4 108.551 65.8667 108.817 65.4C109.084 64.9333 109.517 64.5667 110.117 64.3C111.184 62.3 112.384 60.4333 113.717 58.7C115.117 56.9667 116.617 55.3 118.217 53.7C118.551 53.1667 118.817 52.6 119.017 52C119.217 51.3333 119.784 51.0333 120.717 51.1C121.451 51.2333 121.884 51.6 122.017 52.2C122.151 52.7333 122.384 53.2667 122.717 53.8C124.317 56.6 124.251 59.3667 122.517 62.1C121.651 63.5 120.784 64.8667 119.917 66.2C119.117 67.5333 118.084 68.7333 116.817 69.8C116.084 70.4 115.517 71.1 115.117 71.9C114.784 72.7 114.351 73.4667 113.817 74.2C113.884 74.4 113.917 74.7333 113.917 75.2C113.984 75.6 114.317 75.6333 114.917 75.3C115.651 74.7667 116.351 74.2667 117.017 73.8C117.751 73.3333 118.384 72.7333 118.917 72C119.651 70.9333 120.451 70.0667 121.317 69.4C122.184 68.6667 123.151 68.0333 124.217 67.5C124.751 67.2333 125.251 66.9333 125.717 66.6C126.184 66.2 126.651 65.9667 127.117 65.9C127.917 65.7667 128.384 65.4333 128.517 64.9C128.717 64.3 129.017 63.8333 129.417 63.5C130.017 63.0333 130.584 62.6 131.117 62.2C131.717 61.7333 132.417 61.5667 133.217 61.7C133.551 61.4333 133.851 61.1667 134.117 60.9C134.384 60.6333 134.651 60.4 134.917 60.2C136.451 59.0667 137.551 59.4 138.217 61.2C138.351 61.5333 138.417 61.9 138.417 62.3C138.484 62.6333 138.551 62.9667 138.617 63.3C138.684 63.6333 138.684 63.9667 138.617 64.3C138.551 64.6333 138.584 64.9 138.717 65.1ZM167.417 76.5C167.417 76.8333 167.384 77.2 167.317 77.6C167.317 77.9333 167.084 78.2667 166.617 78.6C166.284 79.3333 165.751 79.8333 165.017 80.1C164.484 80.5 164.117 80.8 163.917 81C163.717 81.4667 163.384 81.7333 162.917 81.8C162.784 82.3333 162.484 82.6333 162.017 82.7C161.551 83.8333 160.684 84.1333 159.417 83.6C158.484 85.0667 157.317 86.4 155.917 87.6C154.517 88.8 153.017 89.7667 151.417 90.5C150.817 90.9667 150.184 91.4333 149.517 91.9C148.917 92.3 148.284 92.7333 147.617 93.2C147.284 93.3333 146.917 93.3667 146.517 93.3C146.184 93.2333 145.884 93.3667 145.617 93.7C144.684 94.9 143.617 95.6667 142.417 96C141.351 96.5333 140.651 96.8 140.317 96.8C139.984 96.8 139.517 96.5333 138.917 96C138.251 95.2667 137.717 94.5 137.317 93.7C136.917 92.8333 136.817 91.8667 137.017 90.8C136.151 89.8667 135.751 88.8333 135.817 87.7C135.884 86.5667 136.151 85.5333 136.617 84.6C137.017 83.6667 137.551 82.4667 138.217 81C138.884 79.5333 139.584 78.0333 140.317 76.5C141.051 74.9667 141.817 73.5 142.617 72.1C143.417 70.7 144.151 69.6 144.817 68.8C144.817 68.5333 144.917 68.2667 145.117 68C145.317 67.6667 145.551 67.3333 145.817 67C146.084 66.6667 146.317 66.3333 146.517 66C146.784 65.6667 146.951 65.4 147.017 65.2C147.151 65.0667 147.117 64.8333 146.917 64.5C146.784 64.1667 146.551 64.0667 146.217 64.2C146.084 64.2667 145.651 64.5667 144.917 65.1C144.184 65.6333 143.384 66.2 142.517 66.8C141.717 67.4 140.917 67.9667 140.117 68.5C139.384 69.0333 138.984 69.3667 138.917 69.5C138.451 70.3 137.851 70.3667 137.117 69.7C136.717 69.3667 136.584 69.1 136.717 68.9C136.851 68.6333 137.084 68.3333 137.417 68C137.617 67.7333 137.817 67.5333 138.017 67.4C139.151 66.3333 140.717 65.1667 142.717 63.9C144.784 62.5667 147.017 61 149.417 59.2C149.884 58.6667 150.351 58.1333 150.817 57.6C151.351 57 151.851 56.4333 152.317 55.9C152.917 54.9667 153.784 54.7667 154.917 55.3C155.251 55.5 155.584 55.5333 155.917 55.4C156.251 55.2 156.551 54.9333 156.817 54.6C157.151 54.1333 157.484 53.6667 157.817 53.2C158.217 52.7333 158.584 52.2667 158.917 51.8C159.251 51.4 159.617 51.2 160.017 51.2C160.484 51.2 160.884 51.3667 161.217 51.7C162.017 52.8333 162.684 54 163.217 55.2C163.751 56.3333 163.984 57.6 163.917 59C163.917 59.7333 163.684 60.4 163.217 61C162.817 61.8667 162.217 62.7 161.417 63.5C160.417 64.4333 159.317 65.6667 158.117 67.2C156.984 68.7333 155.817 70.3333 154.617 72C153.484 73.6667 152.351 75.3 151.217 76.9C150.151 78.4333 149.184 79.7333 148.317 80.8C147.451 81.9333 146.717 83.1333 146.117 84.4C145.517 85.6 144.884 86.8 144.217 88C144.617 88.7333 145.084 88.9667 145.617 88.7C147.151 87.9667 148.651 87.2333 150.117 86.5C151.584 85.7 153.051 84.8667 154.517 84C155.051 83.6667 155.451 83.2333 155.717 82.7C156.051 82.1 156.584 81.7667 157.317 81.7C157.517 81.1 157.851 80.8 158.317 80.8C159.384 79.8667 160.417 78.9333 161.417 78C162.417 77.0667 163.517 76.2333 164.717 75.5C164.851 74.9667 165.117 74.7333 165.517 74.8C166.051 74.6667 166.351 74.6 166.417 74.6C167.217 74.5333 167.551 74.8333 167.417 75.5C167.017 75.1 166.684 74.8 166.417 74.6C166.751 75 167.084 75.3 167.417 75.5V76.5ZM162.917 81.8C163.317 81.4 163.651 81.1333 163.917 81C163.451 81.1333 163.117 81.4 162.917 81.8C162.784 81.9333 162.617 82.0667 162.417 82.2C162.284 82.3333 162.151 82.5 162.017 82.7C162.151 82.5667 162.284 82.4333 162.417 82.3C162.617 82.1 162.784 81.9333 162.917 81.8ZM223.062 57.4C223.262 58.1333 223.062 58.8 222.462 59.4C222.462 59.6 222.428 59.7333 222.362 59.8C222.228 60.1333 222.128 60.5 222.062 60.9C221.995 61.2333 221.795 61.5667 221.462 61.9C220.728 63.7 219.728 65.3 218.462 66.7C218.262 66.8333 218.128 67 218.062 67.2C217.995 67.4 217.895 67.6 217.762 67.8C218.295 68.2 218.628 68.5667 218.762 68.9C219.295 69.7667 219.762 70.6333 220.162 71.5C220.562 72.3667 220.828 73.3333 220.962 74.4C221.095 75.2667 220.995 76.0667 220.662 76.8C220.395 77.4667 219.995 78.1333 219.462 78.8C218.795 79.7333 218.328 80.7 218.062 81.7C217.795 82.7 217.628 83.7667 217.562 84.9C217.495 85.6333 217.428 86.3667 217.362 87.1C217.295 87.7667 217.062 88.4333 216.662 89.1C216.595 89.4333 216.528 89.7667 216.462 90.1C216.395 90.3667 216.195 90.6 215.862 90.8C215.795 91.2 215.628 91.5667 215.362 91.9C215.162 92.1667 214.895 92.4333 214.562 92.7C214.695 92.9 214.628 93.1333 214.362 93.4C214.562 93.8 214.428 94.1 213.962 94.3C214.095 95.1 213.928 95.6667 213.462 96C213.462 97 213.262 97.8333 212.862 98.5C212.995 99.8333 212.695 100.967 211.962 101.9C211.295 102.9 210.695 103.9 210.162 104.9C210.028 105.233 209.828 105.533 209.562 105.8C209.362 106.133 209.195 106.533 209.062 107C208.862 107.8 208.562 108.567 208.162 109.3C207.828 110.1 207.395 110.867 206.862 111.6C206.062 112.667 205.395 113.8 204.862 115C204.328 116.2 203.662 117.367 202.862 118.5C202.128 119.5 201.428 120.5 200.762 121.5C200.095 122.567 199.295 123.533 198.362 124.4C197.962 124.733 197.595 125.133 197.262 125.6C196.995 126.133 196.695 126.6 196.362 127C195.895 127.533 195.462 128.1 195.062 128.7C194.662 129.3 194.162 129.8 193.562 130.2C193.362 130.733 193.095 131.133 192.762 131.4C192.362 131.667 191.962 131.933 191.562 132.2C190.162 133.133 188.728 133.967 187.262 134.7C185.728 135.5 184.195 136.333 182.662 137.2C182.062 137.533 181.295 137.6 180.362 137.4C178.295 137.067 176.562 136.333 175.162 135.2C173.695 134.133 172.628 132.533 171.962 130.4C171.828 130.067 171.695 129.733 171.562 129.4C171.428 129.067 171.262 128.867 171.062 128.8C170.462 128.667 170.028 128.433 169.762 128.1C169.495 127.833 169.328 127.5 169.262 127.1C169.195 126.7 169.162 126.267 169.162 125.8C169.162 125.4 169.128 125 169.062 124.6C168.662 124.267 168.462 123.833 168.462 123.3C168.395 122.767 168.428 122.333 168.562 122C169.362 119.733 170.195 117.5 171.062 115.3C171.928 113.167 173.195 111.2 174.862 109.4C175.395 108.8 175.928 108.2 176.462 107.6C176.995 107 177.662 106.567 178.462 106.3C178.928 106.167 179.295 105.9 179.562 105.5C179.828 105.1 180.162 104.767 180.562 104.5C180.762 104.3 181.095 104.2 181.562 104.2C182.495 104.467 183.162 105.1 183.562 106.1C183.962 107.167 183.862 108.067 183.262 108.8C182.328 109.933 181.428 111.033 180.562 112.1C179.628 113.233 178.562 114.267 177.362 115.2C175.228 116.867 173.962 118.967 173.562 121.5C173.295 123.033 173.228 124.533 173.362 126C173.495 127.467 173.862 128.933 174.462 130.4C175.128 131.8 175.762 132.667 176.362 133C176.962 133.333 178.062 133.333 179.662 133C179.995 132.933 180.328 132.867 180.662 132.8C180.995 132.733 181.328 132.667 181.662 132.6C182.262 132.2 182.828 131.733 183.362 131.2C183.895 130.733 184.528 130.433 185.262 130.3C185.262 129.833 185.495 129.567 185.962 129.5V129.4C186.095 128.867 186.395 128.433 186.862 128.1C187.262 127.833 187.662 127.533 188.062 127.2C190.195 125.467 192.062 123.6 193.662 121.6C195.195 119.6 196.595 117.433 197.862 115.1C198.062 114.767 198.262 114.5 198.462 114.3C198.662 114.1 198.962 113.967 199.362 113.9C199.295 112.833 199.495 111.867 199.962 111C200.428 110.133 200.895 109.267 201.362 108.4C202.095 106.867 202.795 105.3 203.462 103.7C204.128 102.1 204.795 100.5 205.462 98.9C206.328 96.9 207.062 94.8667 207.662 92.8C208.262 90.6667 208.995 88.6 209.862 86.6C209.995 86.2 210.062 85.7667 210.062 85.3C210.128 84.7667 210.362 84.3333 210.762 84C210.895 83.4667 211.028 82.9 211.162 82.3C211.295 81.7 211.428 81.1333 211.562 80.6C211.695 80.0667 211.628 79.7 211.362 79.5C210.895 79.3 210.428 79.4333 209.962 79.9C209.562 80.4333 209.162 80.9667 208.762 81.5C208.362 81.9667 207.962 82.4667 207.562 83C207.628 83.8 207.328 84.3333 206.662 84.6C205.128 85.2 203.828 86.0667 202.762 87.2C201.762 88.3333 200.662 89.4 199.462 90.4C198.995 90.7333 198.562 91.1 198.162 91.5C197.828 91.8333 197.395 92.0667 196.862 92.2C196.662 92.2667 196.462 92.3333 196.262 92.4C196.128 92.4 195.995 92.5333 195.862 92.8C195.595 93.7333 195.095 94.4 194.362 94.8C193.628 95.2 192.862 95.6 192.062 96C190.928 96.4667 189.862 96.5 188.862 96.1C187.862 95.7667 187.228 95.0333 186.962 93.9C186.695 92.9667 186.428 92.1 186.162 91.3C185.828 90.4333 185.495 89.5667 185.162 88.7C184.828 87.5667 184.762 86.4667 184.962 85.4C185.095 84.2667 185.295 83.1333 185.562 82C186.295 81.5333 186.695 80.9 186.762 80.1C186.828 79.3 187.128 78.6 187.662 78C188.128 77.4 188.595 76.8 189.062 76.2C189.528 75.5333 189.995 74.8667 190.462 74.2C190.595 74.0667 190.762 73.9333 190.962 73.8C191.095 73.6 191.228 73.5 191.362 73.5C192.495 73.3 193.262 72.8333 193.662 72.1C194.062 71.3 194.495 70.5 194.962 69.7C195.495 68.5667 196.162 67.6333 196.962 66.9C197.828 66.1 198.862 65.5333 200.062 65.2C200.195 64.8 200.295 64.4 200.362 64C200.495 63.6 200.728 63.2667 201.062 63C202.128 62 203.195 61 204.262 60C205.395 59 206.662 58.2 208.062 57.6C209.195 56.7333 210.295 55.9 211.362 55.1C212.495 54.3 213.628 53.5 214.762 52.7C214.895 52.5667 215.062 52.4667 215.262 52.4C215.462 52.3333 215.628 52.2667 215.762 52.2C216.295 51.8 216.795 51.6333 217.262 51.7C217.795 51.7 218.428 51.8667 219.162 52.2C220.162 52.8 220.928 53.4667 221.462 54.2C221.995 54.6 222.362 55.1 222.562 55.7C222.762 56.2333 222.928 56.8 223.062 57.4ZM204.662 62.9V63C204.728 63 204.762 62.9667 204.762 62.9H204.662ZM218.862 60.3C218.795 60.1667 218.795 60.0333 218.862 59.9C218.995 59.7667 219.028 59.6333 218.962 59.5C218.828 59.5667 218.662 59.6333 218.462 59.7C218.262 59.7667 218.028 59.8333 217.762 59.9C215.962 60.4333 214.428 61.4667 213.162 63C211.828 64.5333 210.428 65.9667 208.962 67.3C207.562 68.5667 206.128 69.8667 204.662 71.2C203.928 71.8667 203.228 72.5333 202.562 73.2C201.962 73.8667 201.395 74.5667 200.862 75.3C200.128 76.2333 199.328 77.1333 198.462 78C197.662 78.8 196.828 79.6333 195.962 80.5C194.895 81.5667 193.928 82.7 193.062 83.9C192.195 85.0333 191.395 86.2333 190.662 87.5C190.262 88.1 189.995 88.7667 189.862 89.5C189.728 90.2333 189.595 90.9667 189.462 91.7C189.395 91.9 189.462 92.1 189.662 92.3C189.795 92.4333 189.962 92.5 190.162 92.5C190.495 92.5 190.828 92.4667 191.162 92.4C191.495 92.3333 191.795 92.2333 192.062 92.1C192.595 91.8333 193.062 91.5667 193.462 91.3C193.862 91.0333 194.295 90.7333 194.762 90.4C195.628 89.6 196.462 88.8 197.262 88C198.062 87.1333 198.928 86.3333 199.862 85.6C201.595 84.2667 203.195 82.8667 204.662 81.4C206.195 79.8667 207.628 78.2333 208.962 76.5C209.295 76.0333 209.628 75.6333 209.962 75.3C210.362 74.9 210.828 74.6 211.362 74.4C212.295 73.8 212.762 72.9 212.762 71.7C212.762 71.4333 212.728 71.1667 212.662 70.9C212.662 70.6333 212.728 70.3667 212.862 70.1C212.995 69.8333 213.095 69.5667 213.162 69.3C213.295 68.9667 213.428 68.6667 213.562 68.4C213.562 68.0667 213.595 67.7333 213.662 67.4C213.728 67.0667 213.928 66.7333 214.262 66.4C214.728 65.8667 215.228 65.4 215.762 65C216.362 64.5333 216.762 63.9333 216.962 63.2C217.562 62.8667 217.928 62.4333 218.062 61.9C218.262 61.3667 218.528 60.8333 218.862 60.3ZM271.248 81.1C271.914 80.8333 272.448 80.7667 272.848 80.9C273.314 81.0333 273.548 81.5667 273.548 82.5H273.448C273.448 83.0333 273.181 83.4 272.648 83.6C271.914 84.2 271.014 84.9 269.948 85.7C268.881 86.5 268.048 87.4 267.448 88.4C265.981 89.3333 264.581 90.4 263.248 91.6C261.981 92.7333 260.581 93.7667 259.048 94.7V94.8C258.448 95.5333 257.714 95.9333 256.848 96H256.948C256.748 96.3333 256.481 96.5333 256.148 96.6C255.814 96.7333 255.481 96.8667 255.148 97C254.548 97.3333 253.948 97.4 253.348 97.2C252.748 97.0667 252.181 96.8 251.648 96.4C250.381 95.4 249.381 94.3 248.648 93.1C247.981 91.8333 247.714 90.3667 247.848 88.7C247.848 88.5667 247.848 88.4 247.848 88.2C247.914 88 247.948 87.8333 247.948 87.7C247.614 86.8333 247.548 85.9667 247.748 85.1C247.614 85.4333 247.581 85.3 247.648 84.7C247.714 84.0333 247.881 83.2333 248.148 82.3C247.948 82.4333 247.748 82.5667 247.548 82.7C247.414 82.8333 247.248 82.9667 247.048 83.1C246.581 83.5 246.214 83.9333 245.948 84.4C245.681 84.8667 245.348 85.3 244.948 85.7C244.548 86.0333 244.414 86.3667 244.548 86.7C244.681 87.0333 244.514 87.3333 244.048 87.6C243.914 87.7333 243.614 88.0333 243.148 88.5C242.748 88.9667 242.481 89.2667 242.348 89.4C242.281 89.8667 241.914 90.1 241.248 90.1C240.648 91.0333 239.914 92.1667 239.048 93.5C238.248 94.7667 236.981 96.0333 235.248 97.3C234.848 97.6333 234.414 97.9 233.948 98.1C233.481 98.3 233.048 98.5667 232.648 98.9C232.048 99.3 231.481 99.4667 230.948 99.4C230.414 99.3333 229.848 99.1333 229.248 98.8C228.714 98.4667 228.248 98.0667 227.848 97.6C227.448 97.2 226.914 96.9333 226.248 96.8C226.048 96.8 225.881 96.5667 225.748 96.1C225.148 95.0333 224.681 93.9333 224.348 92.8C223.948 91.6 223.714 90.4 223.648 89.2C223.514 86.9333 223.848 84.8333 224.648 82.9C224.648 81.2333 225.148 79.8 226.148 78.6C226.414 78.2667 226.614 77.9333 226.748 77.6C226.814 77.2 226.914 76.8333 227.048 76.5C227.181 76.1667 227.314 75.8667 227.448 75.6C227.581 75.2667 227.881 75.0667 228.348 75C228.614 74.2 229.048 73.5333 229.648 73C230.248 72.4667 230.714 71.8333 231.048 71.1C231.648 69.7 232.614 68.5333 233.948 67.6C234.081 67.5333 234.281 67.3 234.548 66.9C234.881 66.5667 235.148 66.1667 235.348 65.7C235.548 65.2333 235.881 64.8667 236.348 64.6C236.881 64.3333 237.214 63.9333 237.348 63.4C237.481 62.8667 237.814 62.5333 238.348 62.4C238.814 62.2667 238.948 62 238.748 61.6C238.614 61.1333 238.781 60.8333 239.248 60.7C239.648 60.5667 239.848 60.3667 239.848 60.1C239.914 59.8333 240.014 59.5667 240.148 59.3C240.348 58.9667 240.548 58.6667 240.748 58.4C240.948 58.1333 241.248 57.9667 241.648 57.9C242.581 57.9 242.748 57.5667 242.148 56.9C242.214 56.7667 242.281 56.6667 242.348 56.6L242.648 56.3C243.648 55.6333 244.614 55 245.548 54.4C246.548 53.8 247.548 53.1667 248.548 52.5C249.081 52.1667 249.614 51.8333 250.148 51.5C250.681 51.1 251.214 50.7 251.748 50.3C252.481 49.6333 253.148 49.3 253.748 49.3C254.414 49.2333 255.214 49.4667 256.148 50C256.681 50.3333 257.181 50.6667 257.648 51C258.181 51.3333 258.614 51.7667 258.948 52.3C259.548 52.8333 259.948 53.4333 260.148 54.1C260.414 54.7667 260.648 55.4667 260.848 56.2C261.114 57.0667 260.881 57.8667 260.148 58.6C260.214 58.7333 260.181 58.9 260.048 59.1C259.848 59.5 259.714 59.9333 259.648 60.4C259.648 60.8667 259.414 61.2667 258.948 61.6C258.081 63.9333 256.848 65.8667 255.248 67.4C254.914 67.7333 254.681 68.1333 254.548 68.6C254.481 69 254.248 69.3333 253.848 69.6C253.448 69.8667 253.048 70.1333 252.648 70.4C252.314 70.6667 251.981 70.9333 251.648 71.2C251.314 71.4667 250.948 71.5333 250.548 71.4C250.148 71.2667 249.881 71 249.748 70.6C249.548 69.9333 249.448 69.3333 249.448 68.8C249.448 68.2667 249.714 67.6667 250.248 67C250.781 66.3333 251.381 65.7667 252.048 65.3C252.781 64.8333 253.281 64.1333 253.548 63.2C254.281 62.8667 254.748 62.3667 254.948 61.7C255.214 60.9667 255.514 60.3 255.848 59.7C255.781 59.5 255.814 59.2667 255.948 59C256.081 58.7333 255.981 58.5 255.648 58.3C254.914 58.5 254.248 58.7667 253.648 59.1C253.114 59.4333 252.581 59.8333 252.048 60.3C251.248 60.9667 250.448 61.6 249.648 62.2C248.914 62.8 248.214 63.5 247.548 64.3C247.148 64.7667 246.748 65.2 246.348 65.6C245.948 66 245.614 66.5 245.348 67.1C245.081 67.7 244.648 68.2667 244.048 68.8C243.514 69.2667 242.948 69.6667 242.348 70C241.481 70.5333 240.814 71.1333 240.348 71.8C239.614 72.8 238.781 73.8 237.848 74.8C236.981 75.7333 236.414 76.9 236.148 78.3C236.014 78.7667 235.748 79.2 235.348 79.6C234.481 80.4667 233.781 81.4333 233.248 82.5C232.648 83.5 232.114 84.5667 231.648 85.7C231.181 86.6333 230.581 87.5667 229.848 88.5C229.248 89.1 228.848 89.8 228.648 90.6C228.448 91.4 228.181 92.1667 227.848 92.9C227.781 93.1667 227.714 93.4667 227.648 93.8C227.581 94.0667 227.714 94.3 228.048 94.5C228.314 94.7 228.581 94.7667 228.848 94.7C229.048 94.6333 229.281 94.5333 229.548 94.4C230.214 94.1333 230.748 93.8333 231.148 93.5C231.481 93.1667 231.948 92.8333 232.548 92.5C232.881 92.3667 233.381 92.1667 234.048 91.9C234.714 91.6333 235.214 91.4667 235.548 91.4C236.081 90.6 236.448 89.9333 236.648 89.4C236.914 88.8 237.448 88.4 238.248 88.2C238.381 88.1333 238.514 88.1 238.648 88.1C238.848 88.1 238.981 88.0333 239.048 87.9C239.581 87.1667 240.081 86.4667 240.548 85.8C241.081 85.1333 241.614 84.4333 242.148 83.7C242.281 83.5667 242.448 83.5 242.648 83.5C242.848 83.4333 243.014 83.3333 243.148 83.2C243.348 83.1333 243.548 83.1 243.748 83.1C243.948 83.0333 244.114 82.9333 244.248 82.8C244.781 82.2667 245.081 81.7667 245.148 81.3C245.281 80.8333 245.681 80.4 246.348 80C246.681 79.8 247.048 79.6 247.448 79.4C247.914 79.2 248.248 78.7667 248.448 78.1C248.581 77.7 248.881 77.4333 249.348 77.3C249.881 77.1 250.314 76.7667 250.648 76.3C250.848 75.9667 251.148 75.7 251.548 75.5C251.948 74.8333 252.548 74.5333 253.348 74.6C253.481 74.4667 253.581 74.3667 253.648 74.3C253.781 74.2333 253.914 74.1333 254.048 74C254.048 73.9333 254.048 73.8667 254.048 73.8C254.114 73.7333 254.148 73.6333 254.148 73.5C254.281 72.8333 254.481 72.2667 254.748 71.8C255.081 71.2667 255.648 70.9333 256.448 70.8C256.648 70.7333 256.814 70.5667 256.948 70.3C257.148 70.0333 257.348 69.8 257.548 69.6C258.014 68.9333 258.481 68.9 258.948 69.5C259.281 69.9667 259.514 70.3667 259.648 70.7C259.848 70.9667 259.981 71.2667 260.048 71.6C260.181 71.8667 260.314 72.1667 260.448 72.5C260.648 72.8333 260.914 73.2333 261.248 73.7C261.581 74.1667 261.614 74.8333 261.348 75.7C261.014 76.7 260.481 77.5667 259.748 78.3C259.348 78.7667 258.881 79.3667 258.348 80.1C257.814 80.7667 257.281 81.5 256.748 82.3C256.281 83.0333 255.814 83.8 255.348 84.6C254.948 85.3333 254.648 85.9667 254.448 86.5C254.448 86.7 254.481 87.1333 254.548 87.8C254.614 88.4 254.848 88.8667 255.248 89.2C255.448 89.2667 255.781 89.2 256.248 89C256.781 88.8 257.314 88.6 257.848 88.4C258.381 88.1333 258.881 87.9 259.348 87.7C259.881 87.4333 260.248 87.3 260.448 87.3H260.648C260.981 86.5667 261.248 86.1667 261.448 86.1C261.648 85.9667 262.181 85.9667 263.048 86.1C263.314 86.1 263.514 86.1333 263.648 86.2C263.648 86.1333 263.681 86.1 263.748 86.1C263.748 85.7667 263.948 85.6 264.348 85.6C264.414 85.5333 264.448 85.5 264.448 85.5C264.448 85.4333 264.481 85.3667 264.548 85.3C264.614 85.3 264.681 85.2667 264.748 85.2C265.081 84.8 265.548 84.4 266.148 84C266.748 83.6 267.381 83.2 268.048 82.8C268.714 82.4 269.348 82.0667 269.948 81.8C270.548 81.4667 270.981 81.2333 271.248 81.1ZM320.604 79.1C320.937 79.2333 321.171 79.5667 321.304 80.1C321.437 80.6333 321.437 81.0667 321.304 81.4C321.037 81.8667 320.771 82.2 320.504 82.4C318.971 83.2667 317.537 84.2667 316.204 85.4C314.937 86.4667 313.471 87.3 311.804 87.9C311.337 88.4333 310.804 88.9 310.204 89.3C309.604 89.6333 309.004 89.9667 308.404 90.3C307.404 90.8333 306.371 91.3333 305.304 91.8C304.237 92.2 303.304 92.8333 302.504 93.7C302.304 93.9 301.937 94.1333 301.404 94.4C300.871 94.5333 300.304 94.7333 299.704 95C299.171 95.2 298.671 95.2 298.204 95C297.471 94.7333 296.837 94.3 296.304 93.7C295.771 93.0333 295.437 92.3 295.304 91.5C295.104 90.3667 295.004 89.2667 295.004 88.2C295.004 87.0667 295.304 85.9333 295.904 84.8C296.637 83.4667 297.271 82.0667 297.804 80.6C298.337 79.1333 298.937 77.6667 299.604 76.2C299.071 76.2 298.604 76.3 298.204 76.5C297.871 76.7 297.637 76.9333 297.504 77.2C296.504 78.8 295.304 80.2333 293.904 81.5C292.504 82.7667 291.204 84.1 290.004 85.5C288.871 86.8333 287.671 88.1667 286.404 89.5C285.204 90.7667 283.971 92.0333 282.704 93.3L282.404 93.6C280.337 94.7333 278.471 96.0667 276.804 97.6C275.137 99.1333 273.304 100.467 271.304 101.6C270.571 102 270.037 102.167 269.704 102.1C269.371 102.033 268.904 101.733 268.304 101.2C266.904 99.8667 266.104 98.4333 265.904 96.9C265.637 95.3667 265.771 93.7667 266.304 92.1C266.571 91.2333 266.871 90.3667 267.204 89.5C267.537 88.6333 268.037 87.8333 268.704 87.1C268.971 85.5 269.804 84.1667 271.204 83.1C272.204 81.7667 273.204 80.4667 274.204 79.2C275.204 77.9333 276.237 76.6333 277.304 75.3C277.904 74.5667 278.604 74.6 279.404 75.4C279.804 75.8 280.104 76.1333 280.304 76.4C282.371 79.2 282.204 81.7333 279.804 84C278.471 85.2667 277.304 86.6333 276.304 88.1C275.237 89.5 274.171 90.9667 273.104 92.5C272.971 92.6333 272.904 92.8333 272.904 93.1C272.904 93.3 272.871 93.5667 272.804 93.9C273.871 93.5667 274.804 93.1 275.604 92.5C276.337 91.9 277.104 91.3333 277.904 90.8C279.371 89.8 280.771 88.7667 282.104 87.7C283.437 86.6333 284.671 85.4333 285.804 84.1C287.137 82.5667 288.537 81.1333 290.004 79.8C291.471 78.4667 292.904 77.1 294.304 75.7C296.037 73.9667 297.704 72.2 299.304 70.4C300.971 68.6 302.571 66.7333 304.104 64.8C304.837 63.9333 305.504 63.0333 306.104 62.1C306.704 61.1 307.537 60.3 308.604 59.7C308.671 59.4333 308.737 59.1667 308.804 58.9C308.937 58.6333 309.037 58.3667 309.104 58.1C309.171 57.8333 309.137 57.6 309.004 57.4C308.871 57.1333 308.704 57.0667 308.504 57.2C307.971 57.4 307.437 57.5667 306.904 57.7C306.371 57.7667 305.837 57.8333 305.304 57.9C304.771 57.9667 304.237 58.0667 303.704 58.2C303.237 58.3333 302.804 58.6 302.404 59C301.871 59.5333 301.271 59.7667 300.604 59.7C299.937 59.6333 299.304 59.7 298.704 59.9C297.371 60.3 296.037 60.7667 294.704 61.3C293.437 61.7667 292.304 62.5667 291.304 63.7C290.904 64.1667 290.504 64.3667 290.104 64.3C289.771 64.1667 289.504 63.8333 289.304 63.3C288.571 61.7667 288.371 60.3667 288.704 59.1C289.104 57.7667 290.271 56.5667 292.204 55.5C292.804 55.2333 293.471 55.0333 294.204 54.9C294.671 54.7667 295.104 54.7 295.504 54.7C295.971 54.6333 296.371 54.5 296.704 54.3C297.904 53.5667 299.171 53.2333 300.504 53.3C301.904 53.3 303.237 53.1 304.504 52.7C304.771 52.5667 305.071 52.5 305.404 52.5C305.737 52.4333 305.971 52.4667 306.104 52.6C306.904 53.2 307.637 53.4333 308.304 53.3C308.971 53.1667 309.671 52.9 310.404 52.5C311.604 51.8333 312.804 51.6333 314.004 51.9C315.271 52.1667 316.471 52.4667 317.604 52.8C318.004 52.9333 318.437 53.0667 318.904 53.2C319.437 53.3333 319.937 53.5 320.404 53.7C320.471 53.7667 320.604 53.9667 320.804 54.3C320.871 54.5667 320.837 54.7 320.704 54.7C320.571 54.6333 320.437 54.6333 320.304 54.7C319.371 55.0333 318.737 55.3667 318.404 55.7C318.137 56.0333 318.037 56.5667 318.104 57.3C318.171 57.8333 318.237 58.3333 318.304 58.8C318.371 59.2667 318.437 59.7667 318.504 60.3C318.571 61.0333 318.471 61.6667 318.204 62.2C318.004 62.7333 317.571 63.1667 316.904 63.5C316.771 64.2333 316.471 64.9 316.004 65.5C315.537 66.0333 315.071 66.5667 314.604 67.1C313.804 68.0333 312.971 68.9667 312.104 69.9C311.304 70.7667 310.537 71.6667 309.804 72.6C309.337 73.2667 308.937 73.9333 308.604 74.6C308.271 75.2667 307.904 75.9667 307.504 76.7C306.637 78.3667 305.771 80.0333 304.904 81.7C304.037 83.3 303.171 84.9333 302.304 86.6C302.037 87.1333 302.137 87.5 302.604 87.7C302.737 87.7667 302.871 87.8 303.004 87.8C303.137 87.8 303.271 87.8 303.404 87.8L305.504 87.2C306.971 86.2667 308.437 85.4 309.904 84.6C311.371 83.8 312.904 83.0667 314.504 82.4C315.371 82.0667 316.171 81.6333 316.904 81.1C317.637 80.5 318.371 79.9333 319.104 79.4C319.637 78.8667 320.137 78.7667 320.604 79.1ZM365.095 81.1C365.762 80.8333 366.295 80.7667 366.695 80.9C367.162 81.0333 367.395 81.5667 367.395 82.5H367.295C367.295 83.0333 367.029 83.4 366.495 83.6C365.762 84.2 364.862 84.9 363.795 85.7C362.729 86.5 361.895 87.4 361.295 88.4C359.829 89.3333 358.429 90.4 357.095 91.6C355.829 92.7333 354.429 93.7667 352.895 94.7V94.8C352.295 95.5333 351.562 95.9333 350.695 96H350.795C350.595 96.3333 350.329 96.5333 349.995 96.6C349.662 96.7333 349.329 96.8667 348.995 97C348.395 97.3333 347.795 97.4 347.195 97.2C346.595 97.0667 346.029 96.8 345.495 96.4C344.229 95.4 343.229 94.3 342.495 93.1C341.829 91.8333 341.562 90.3667 341.695 88.7C341.695 88.5667 341.695 88.4 341.695 88.2C341.762 88 341.795 87.8333 341.795 87.7C341.462 86.8333 341.395 85.9667 341.595 85.1C341.462 85.4333 341.429 85.3 341.495 84.7C341.562 84.0333 341.729 83.2333 341.995 82.3C341.795 82.4333 341.595 82.5667 341.395 82.7C341.262 82.8333 341.095 82.9667 340.895 83.1C340.429 83.5 340.062 83.9333 339.795 84.4C339.529 84.8667 339.195 85.3 338.795 85.7C338.395 86.0333 338.262 86.3667 338.395 86.7C338.529 87.0333 338.362 87.3333 337.895 87.6C337.762 87.7333 337.462 88.0333 336.995 88.5C336.595 88.9667 336.329 89.2667 336.195 89.4C336.129 89.8667 335.762 90.1 335.095 90.1C334.495 91.0333 333.762 92.1667 332.895 93.5C332.095 94.7667 330.829 96.0333 329.095 97.3C328.695 97.6333 328.262 97.9 327.795 98.1C327.329 98.3 326.895 98.5667 326.495 98.9C325.895 99.3 325.329 99.4667 324.795 99.4C324.262 99.3333 323.695 99.1333 323.095 98.8C322.562 98.4667 322.095 98.0667 321.695 97.6C321.295 97.2 320.762 96.9333 320.095 96.8C319.895 96.8 319.729 96.5667 319.595 96.1C318.995 95.0333 318.529 93.9333 318.195 92.8C317.795 91.6 317.562 90.4 317.495 89.2C317.362 86.9333 317.695 84.8333 318.495 82.9C318.495 81.2333 318.995 79.8 319.995 78.6C320.262 78.2667 320.462 77.9333 320.595 77.6C320.662 77.2 320.762 76.8333 320.895 76.5C321.029 76.1667 321.162 75.8667 321.295 75.6C321.429 75.2667 321.729 75.0667 322.195 75C322.462 74.2 322.895 73.5333 323.495 73C324.095 72.4667 324.562 71.8333 324.895 71.1C325.495 69.7 326.462 68.5333 327.795 67.6C327.929 67.5333 328.129 67.3 328.395 66.9C328.729 66.5667 328.995 66.1667 329.195 65.7C329.395 65.2333 329.729 64.8667 330.195 64.6C330.729 64.3333 331.062 63.9333 331.195 63.4C331.329 62.8667 331.662 62.5333 332.195 62.4C332.662 62.2667 332.795 62 332.595 61.6C332.462 61.1333 332.629 60.8333 333.095 60.7C333.495 60.5667 333.695 60.3667 333.695 60.1C333.762 59.8333 333.862 59.5667 333.995 59.3C334.195 58.9667 334.395 58.6667 334.595 58.4C334.795 58.1333 335.095 57.9667 335.495 57.9C336.429 57.9 336.595 57.5667 335.995 56.9C336.062 56.7667 336.129 56.6667 336.195 56.6L336.495 56.3C337.495 55.6333 338.462 55 339.395 54.4C340.395 53.8 341.395 53.1667 342.395 52.5C342.929 52.1667 343.462 51.8333 343.995 51.5C344.529 51.1 345.062 50.7 345.595 50.3C346.329 49.6333 346.995 49.3 347.595 49.3C348.262 49.2333 349.062 49.4667 349.995 50C350.529 50.3333 351.029 50.6667 351.495 51C352.029 51.3333 352.462 51.7667 352.795 52.3C353.395 52.8333 353.795 53.4333 353.995 54.1C354.262 54.7667 354.495 55.4667 354.695 56.2C354.962 57.0667 354.729 57.8667 353.995 58.6C354.062 58.7333 354.029 58.9 353.895 59.1C353.695 59.5 353.562 59.9333 353.495 60.4C353.495 60.8667 353.262 61.2667 352.795 61.6C351.929 63.9333 350.695 65.8667 349.095 67.4C348.762 67.7333 348.529 68.1333 348.395 68.6C348.329 69 348.095 69.3333 347.695 69.6C347.295 69.8667 346.895 70.1333 346.495 70.4C346.162 70.6667 345.829 70.9333 345.495 71.2C345.162 71.4667 344.795 71.5333 344.395 71.4C343.995 71.2667 343.729 71 343.595 70.6C343.395 69.9333 343.295 69.3333 343.295 68.8C343.295 68.2667 343.562 67.6667 344.095 67C344.629 66.3333 345.229 65.7667 345.895 65.3C346.629 64.8333 347.129 64.1333 347.395 63.2C348.129 62.8667 348.595 62.3667 348.795 61.7C349.062 60.9667 349.362 60.3 349.695 59.7C349.629 59.5 349.662 59.2667 349.795 59C349.929 58.7333 349.829 58.5 349.495 58.3C348.762 58.5 348.095 58.7667 347.495 59.1C346.962 59.4333 346.429 59.8333 345.895 60.3C345.095 60.9667 344.295 61.6 343.495 62.2C342.762 62.8 342.062 63.5 341.395 64.3C340.995 64.7667 340.595 65.2 340.195 65.6C339.795 66 339.462 66.5 339.195 67.1C338.929 67.7 338.495 68.2667 337.895 68.8C337.362 69.2667 336.795 69.6667 336.195 70C335.329 70.5333 334.662 71.1333 334.195 71.8C333.462 72.8 332.629 73.8 331.695 74.8C330.829 75.7333 330.262 76.9 329.995 78.3C329.862 78.7667 329.595 79.2 329.195 79.6C328.329 80.4667 327.629 81.4333 327.095 82.5C326.495 83.5 325.962 84.5667 325.495 85.7C325.029 86.6333 324.429 87.5667 323.695 88.5C323.095 89.1 322.695 89.8 322.495 90.6C322.295 91.4 322.029 92.1667 321.695 92.9C321.629 93.1667 321.562 93.4667 321.495 93.8C321.429 94.0667 321.562 94.3 321.895 94.5C322.162 94.7 322.429 94.7667 322.695 94.7C322.895 94.6333 323.129 94.5333 323.395 94.4C324.062 94.1333 324.595 93.8333 324.995 93.5C325.329 93.1667 325.795 92.8333 326.395 92.5C326.729 92.3667 327.229 92.1667 327.895 91.9C328.562 91.6333 329.062 91.4667 329.395 91.4C329.929 90.6 330.295 89.9333 330.495 89.4C330.762 88.8 331.295 88.4 332.095 88.2C332.229 88.1333 332.362 88.1 332.495 88.1C332.695 88.1 332.829 88.0333 332.895 87.9C333.429 87.1667 333.929 86.4667 334.395 85.8C334.929 85.1333 335.462 84.4333 335.995 83.7C336.129 83.5667 336.295 83.5 336.495 83.5C336.695 83.4333 336.862 83.3333 336.995 83.2C337.195 83.1333 337.395 83.1 337.595 83.1C337.795 83.0333 337.962 82.9333 338.095 82.8C338.629 82.2667 338.929 81.7667 338.995 81.3C339.129 80.8333 339.529 80.4 340.195 80C340.529 79.8 340.895 79.6 341.295 79.4C341.762 79.2 342.095 78.7667 342.295 78.1C342.429 77.7 342.729 77.4333 343.195 77.3C343.729 77.1 344.162 76.7667 344.495 76.3C344.695 75.9667 344.995 75.7 345.395 75.5C345.795 74.8333 346.395 74.5333 347.195 74.6C347.329 74.4667 347.429 74.3667 347.495 74.3C347.629 74.2333 347.762 74.1333 347.895 74C347.895 73.9333 347.895 73.8667 347.895 73.8C347.962 73.7333 347.995 73.6333 347.995 73.5C348.129 72.8333 348.329 72.2667 348.595 71.8C348.929 71.2667 349.495 70.9333 350.295 70.8C350.495 70.7333 350.662 70.5667 350.795 70.3C350.995 70.0333 351.195 69.8 351.395 69.6C351.862 68.9333 352.329 68.9 352.795 69.5C353.129 69.9667 353.362 70.3667 353.495 70.7C353.695 70.9667 353.829 71.2667 353.895 71.6C354.029 71.8667 354.162 72.1667 354.295 72.5C354.495 72.8333 354.762 73.2333 355.095 73.7C355.429 74.1667 355.462 74.8333 355.195 75.7C354.862 76.7 354.329 77.5667 353.595 78.3C353.195 78.7667 352.729 79.3667 352.195 80.1C351.662 80.7667 351.129 81.5 350.595 82.3C350.129 83.0333 349.662 83.8 349.195 84.6C348.795 85.3333 348.495 85.9667 348.295 86.5C348.295 86.7 348.329 87.1333 348.395 87.8C348.462 88.4 348.695 88.8667 349.095 89.2C349.295 89.2667 349.629 89.2 350.095 89C350.629 88.8 351.162 88.6 351.695 88.4C352.229 88.1333 352.729 87.9 353.195 87.7C353.729 87.4333 354.095 87.3 354.295 87.3H354.495C354.829 86.5667 355.095 86.1667 355.295 86.1C355.495 85.9667 356.029 85.9667 356.895 86.1C357.162 86.1 357.362 86.1333 357.495 86.2C357.495 86.1333 357.529 86.1 357.595 86.1C357.595 85.7667 357.795 85.6 358.195 85.6C358.262 85.5333 358.295 85.5 358.295 85.5C358.295 85.4333 358.329 85.3667 358.395 85.3C358.462 85.3 358.529 85.2667 358.595 85.2C358.929 84.8 359.395 84.4 359.995 84C360.595 83.6 361.229 83.2 361.895 82.8C362.562 82.4 363.195 82.0667 363.795 81.8C364.395 81.4667 364.829 81.2333 365.095 81.1ZM463.973 26.1C464.173 26.8333 464.273 27.5667 464.273 28.3C464.34 29.0333 464.373 29.7667 464.373 30.5C464.373 30.8333 464.207 31.1333 463.873 31.4C463.607 31.6 463.307 31.6667 462.973 31.6C462.107 31.4667 461.24 31.4333 460.373 31.5C459.573 31.5667 458.74 31.6667 457.873 31.8C457.073 31.8667 456.24 31.9 455.373 31.9C454.573 31.9 453.74 31.8 452.873 31.6C452.34 31.4667 451.773 31.4667 451.173 31.6C450.573 31.7333 450.04 31.9333 449.573 32.2C447.573 33.4 445.473 34.1333 443.273 34.4C441.14 34.6667 438.973 34.9333 436.773 35.2C436.107 35.2667 435.473 35.4 434.873 35.6C434.273 35.7333 433.64 35.9 432.973 36.1C432.24 36.3 431.473 36.5333 430.673 36.8C429.873 37 429.073 37.1333 428.273 37.2C425.807 37.4 423.54 38 421.473 39C419.407 39.9333 417.407 41.2 415.473 42.8C416.473 43.9333 417.473 45.0333 418.473 46.1C419.54 47.1667 420.373 48.3667 420.973 49.7C421.307 50.3 421.607 50.9 421.873 51.5C422.207 52.0333 422.44 52.6333 422.573 53.3C422.907 54.7667 423.34 56.2 423.873 57.6C424.407 58.9333 424.94 60.2667 425.473 61.6C426.34 62.8667 426.74 64.1333 426.673 65.4C426.673 66.6 426.407 67.9333 425.873 69.4C425.273 70.9333 424.573 72.4667 423.773 74C423.04 75.4667 422.307 76.9667 421.573 78.5C420.973 79.3667 420.373 80.2333 419.773 81.1C419.24 81.9667 418.54 82.7333 417.673 83.4C416.54 85.1333 415.24 86.7667 413.773 88.3C412.373 89.7667 411.007 91.2667 409.673 92.8C409.407 93.0667 409.073 93.3 408.673 93.5C408.34 93.6333 408.007 93.8 407.673 94C407.473 94.4667 407.173 94.7667 406.773 94.9C406.373 95.0333 406.007 95.2 405.673 95.4C405.207 95.6667 404.807 96 404.473 96.4C404.14 96.8667 403.607 96.9333 402.873 96.6C402.073 96.2667 401.24 95.9333 400.373 95.6C399.573 95.3333 398.973 94.7 398.573 93.7C398.04 92.3 397.34 91.0333 396.473 89.9C395.807 89.0333 395.373 88.0667 395.173 87C395.04 85.8667 395.14 84.8333 395.473 83.9C396.007 82.5 396.507 81.0667 396.973 79.6C397.507 78.1333 398.407 76.8667 399.673 75.8C400.54 75.0667 401.207 74.2 401.673 73.2C402.14 72.1333 402.84 71.2333 403.773 70.5C404.573 69.3667 405.473 68.3333 406.473 67.4C407.54 66.4 408.573 65.4 409.573 64.4C410.573 63.4 411.507 62.3667 412.373 61.3C413.307 60.2333 414.04 59 414.573 57.6C414.773 57.0667 415.107 56.6667 415.573 56.4C416.107 56.0667 416.573 55.7 416.973 55.3C417.907 54.3 418.307 53.5333 418.173 53C418.04 52.4667 417.407 51.8 416.273 51C415.073 50.0667 413.873 49.1667 412.673 48.3C411.473 47.4333 410.473 46.3333 409.673 45C409.607 44.8667 409.54 44.8 409.473 44.8C409.473 44.7333 409.44 44.6333 409.373 44.5V44.4C408.64 42.9333 408.173 41.4333 407.973 39.9C407.773 38.3 407.74 36.7 407.873 35.1C407.807 34.1667 408.007 33.5 408.473 33.1C409.007 32.7 409.64 32.4333 410.373 32.3C410.907 32.1667 411.44 32.1 411.973 32.1C412.507 32.0333 413.04 31.9667 413.573 31.9L417.473 32.2C417.74 31.9333 417.907 31.7333 417.973 31.6C419.107 31 420.24 30.5667 421.373 30.3C422.573 29.9667 423.84 30.2333 425.173 31.1C425.907 31.6333 426.673 31.8 427.473 31.6C428.34 31.3333 429.14 31.0333 429.873 30.7C432.207 29.6333 434.54 28.6667 436.873 27.8C439.207 26.9333 441.773 26.8333 444.573 27.5C445.173 27.7 445.673 27.6667 446.073 27.4C446.54 27.0667 446.973 26.7 447.373 26.3C447.773 25.8333 448.173 25.4 448.573 25C448.973 24.5333 449.473 24.2333 450.073 24.1C452.007 23.5667 453.64 23.3 454.973 23.3C456.373 23.3 457.773 23.5667 459.173 24.1C459.507 24.0333 459.807 24 460.073 24C460.407 24 460.74 24 461.073 24C462.673 23.9333 463.64 24.6333 463.973 26.1ZM419.873 63.5C418.54 64.5 417.34 65.6333 416.273 66.9C415.273 68.1 414.14 69.2667 412.873 70.4C410.74 72.3333 408.84 74.4333 407.173 76.7C405.507 78.9667 403.807 81.2333 402.073 83.5C401.54 84.2333 401.173 85 400.973 85.8C400.773 86.5333 400.573 87.3 400.373 88.1C400.373 88.3 400.407 88.5667 400.473 88.9C400.607 89.1667 400.773 89.4667 400.973 89.8C401.173 90.0667 401.373 90.3333 401.573 90.6C401.773 90.8 401.973 90.8667 402.173 90.8C402.707 90.6667 403.24 90.5 403.773 90.3C404.373 90.1 404.973 90.0333 405.573 90.1C405.907 88.5667 406.507 87.3333 407.373 86.4C408.24 85.4 409.573 84.9667 411.373 85.1H411.573C411.507 85.0333 411.44 85 411.373 85C411.44 84.2667 411.64 83.6333 411.973 83.1C412.373 82.5667 412.873 82.0333 413.473 81.5C415.673 79.4333 417.44 77.1667 418.773 74.7C420.173 72.1667 421.307 69.5 422.173 66.7C422.173 66.7 422.207 66.5667 422.273 66.3C422.34 66.0333 422.407 65.7667 422.473 65.5C422.607 65.1667 422.74 64.8667 422.873 64.6C423.007 64.2667 423.107 64.0333 423.173 63.9C422.84 63.6333 422.307 63.4 421.573 63.2C420.907 63 420.34 63.1 419.873 63.5ZM409.173 36.8C409.173 36.7333 409.173 36.7 409.173 36.7C409.24 36.6333 409.273 36.5667 409.273 36.5H409.173V36.8ZM461.245 49.1C462.379 49.6333 463.179 50.3333 463.645 51.2C464.112 52.0667 464.345 53.0667 464.345 54.2C464.412 56 464.279 57.8 463.945 59.6C463.679 61.3333 463.045 63 462.045 64.6C461.312 65.6667 460.845 66.7667 460.645 67.9C460.512 68.2333 460.379 68.6 460.245 69C460.112 69.3333 459.912 69.6333 459.645 69.9C458.979 70.5 458.379 71.1667 457.845 71.9C457.379 72.6333 456.912 73.4 456.445 74.2C455.979 74.9333 455.479 75.6667 454.945 76.4C454.412 77.0667 453.779 77.7 453.045 78.3C452.379 78.8333 451.845 79.5333 451.445 80.4C451.112 81.2 450.679 81.9667 450.145 82.7C449.145 84.0333 448.145 85.4 447.145 86.8C446.145 88.2 444.979 89.4667 443.645 90.6C443.512 91.2 443.179 91.5333 442.645 91.6C442.645 92.1333 442.379 92.4667 441.845 92.6C441.379 93.9333 440.612 94.9667 439.545 95.7C438.545 96.4333 437.579 97.2 436.645 98C435.712 98.8 434.945 99.3667 434.345 99.7C433.812 100.1 433.312 100.267 432.845 100.2C432.379 100.2 431.912 99.9667 431.445 99.5C430.912 99.0333 430.212 98.3667 429.345 97.5C427.679 95.9 426.645 94.1333 426.245 92.2C425.845 90.2667 425.712 88.2667 425.845 86.2C426.045 83.4 426.579 80.7 427.445 78.1C428.245 75.4333 429.312 72.8667 430.645 70.4C431.112 69.5333 431.612 68.7 432.145 67.9C432.612 67.0333 433.012 66.1333 433.345 65.2C434.479 62.6 436.112 60.2667 438.245 58.2C439.579 57 440.679 57.1333 441.545 58.6C442.279 59.6667 442.745 60.7667 442.945 61.9C443.012 62.5 442.979 63.0333 442.845 63.5C442.779 63.9667 442.579 64.4333 442.245 64.9C439.245 68.7 436.945 72.9 435.345 77.5C435.279 77.7 435.179 77.9 435.045 78.1C434.979 78.3 434.879 78.5 434.745 78.7C434.412 79.2333 434.012 80 433.545 81C433.079 82 432.645 83.0667 432.245 84.2C431.845 85.2667 431.512 86.3333 431.245 87.4C430.979 88.4 430.812 89.2333 430.745 89.9C430.679 90.2333 430.679 90.6 430.745 91C430.745 91.4 430.779 91.7667 430.845 92.1C433.512 91.3667 435.612 90.1333 437.145 88.4C437.479 88 437.812 87.6333 438.145 87.3C438.545 86.9 439.079 86.7333 439.745 86.8C440.545 85.8667 441.345 85 442.145 84.2C443.012 83.3333 443.712 82.2667 444.245 81C444.645 80.0667 445.212 79.2333 445.945 78.5C446.679 77.7 447.379 76.9 448.045 76.1C449.445 73.7 450.812 71.3333 452.145 69C453.545 66.6 454.979 64.2333 456.445 61.9C457.179 60.7667 457.812 59.6 458.345 58.4C458.945 57.2 459.279 55.9 459.345 54.5C457.879 54.6333 456.745 55.1667 455.945 56.1C455.145 56.9667 454.279 57.8333 453.345 58.7C452.945 59.1667 452.579 59.7 452.245 60.3C451.912 60.8333 451.412 61.2 450.745 61.4C450.479 63.3333 449.745 64.9 448.545 66.1C447.345 67.2333 446.079 68.3667 444.745 69.5C444.545 68.5667 444.445 67.7667 444.445 67.1C444.445 66.4333 444.545 65.7667 444.745 65.1C444.945 64.3667 445.279 63.5667 445.745 62.7C446.279 61.8333 446.979 60.7667 447.845 59.5C447.979 58.9 448.112 58.3333 448.245 57.8C448.379 57.2 448.845 56.8333 449.645 56.7C450.512 55.5 451.345 54.3667 452.145 53.3C453.012 52.1667 453.979 51.1 455.045 50.1C456.045 49.1667 457.045 48.6333 458.045 48.5C459.045 48.3667 460.112 48.5667 461.245 49.1ZM505.174 79.1C505.508 79.2333 505.741 79.5667 505.874 80.1C506.008 80.6333 506.008 81.0667 505.874 81.4C505.608 81.8667 505.341 82.2 505.074 82.4C503.541 83.2667 502.108 84.2667 500.774 85.4C499.508 86.4667 498.041 87.3 496.374 87.9C495.908 88.4333 495.374 88.9 494.774 89.3C494.174 89.6333 493.574 89.9667 492.974 90.3C491.974 90.8333 490.941 91.3333 489.874 91.8C488.808 92.2 487.874 92.8333 487.074 93.7C486.874 93.9 486.508 94.1333 485.974 94.4C485.441 94.5333 484.874 94.7333 484.274 95C483.741 95.2 483.241 95.2 482.774 95C482.041 94.7333 481.408 94.3 480.874 93.7C480.341 93.0333 480.008 92.3 479.874 91.5C479.674 90.3667 479.574 89.2667 479.574 88.2C479.574 87.0667 479.874 85.9333 480.474 84.8C481.208 83.4667 481.841 82.0667 482.374 80.6C482.908 79.1333 483.508 77.6667 484.174 76.2C483.641 76.2 483.174 76.3 482.774 76.5C482.441 76.7 482.208 76.9333 482.074 77.2C481.074 78.8 479.874 80.2333 478.474 81.5C477.074 82.7667 475.774 84.1 474.574 85.5C473.441 86.8333 472.241 88.1667 470.974 89.5C469.774 90.7667 468.541 92.0333 467.274 93.3L466.974 93.6C464.908 94.7333 463.041 96.0667 461.374 97.6C459.708 99.1333 457.874 100.467 455.874 101.6C455.141 102 454.608 102.167 454.274 102.1C453.941 102.033 453.474 101.733 452.874 101.2C451.474 99.8667 450.674 98.4333 450.474 96.9C450.208 95.3667 450.341 93.7667 450.874 92.1C451.141 91.2333 451.441 90.3667 451.774 89.5C452.108 88.6333 452.608 87.8333 453.274 87.1C453.541 85.5 454.374 84.1667 455.774 83.1C456.774 81.7667 457.774 80.4667 458.774 79.2C459.774 77.9333 460.808 76.6333 461.874 75.3C462.474 74.5667 463.174 74.6 463.974 75.4C464.374 75.8 464.674 76.1333 464.874 76.4C466.941 79.2 466.774 81.7333 464.374 84C463.041 85.2667 461.874 86.6333 460.874 88.1C459.808 89.5 458.741 90.9667 457.674 92.5C457.541 92.6333 457.474 92.8333 457.474 93.1C457.474 93.3 457.441 93.5667 457.374 93.9C458.441 93.5667 459.374 93.1 460.174 92.5C460.908 91.9 461.674 91.3333 462.474 90.8C463.941 89.8 465.341 88.7667 466.674 87.7C468.008 86.6333 469.241 85.4333 470.374 84.1C471.708 82.5667 473.108 81.1333 474.574 79.8C476.041 78.4667 477.474 77.1 478.874 75.7C480.608 73.9667 482.274 72.2 483.874 70.4C485.541 68.6 487.141 66.7333 488.674 64.8C489.408 63.9333 490.074 63.0333 490.674 62.1C491.274 61.1 492.108 60.3 493.174 59.7C493.241 59.4333 493.308 59.1667 493.374 58.9C493.508 58.6333 493.608 58.3667 493.674 58.1C493.741 57.8333 493.708 57.6 493.574 57.4C493.441 57.1333 493.274 57.0667 493.074 57.2C492.541 57.4 492.008 57.5667 491.474 57.7C490.941 57.7667 490.408 57.8333 489.874 57.9C489.341 57.9667 488.808 58.0667 488.274 58.2C487.808 58.3333 487.374 58.6 486.974 59C486.441 59.5333 485.841 59.7667 485.174 59.7C484.508 59.6333 483.874 59.7 483.274 59.9C481.941 60.3 480.608 60.7667 479.274 61.3C478.008 61.7667 476.874 62.5667 475.874 63.7C475.474 64.1667 475.074 64.3667 474.674 64.3C474.341 64.1667 474.074 63.8333 473.874 63.3C473.141 61.7667 472.941 60.3667 473.274 59.1C473.674 57.7667 474.841 56.5667 476.774 55.5C477.374 55.2333 478.041 55.0333 478.774 54.9C479.241 54.7667 479.674 54.7 480.074 54.7C480.541 54.6333 480.941 54.5 481.274 54.3C482.474 53.5667 483.741 53.2333 485.074 53.3C486.474 53.3 487.808 53.1 489.074 52.7C489.341 52.5667 489.641 52.5 489.974 52.5C490.308 52.4333 490.541 52.4667 490.674 52.6C491.474 53.2 492.208 53.4333 492.874 53.3C493.541 53.1667 494.241 52.9 494.974 52.5C496.174 51.8333 497.374 51.6333 498.574 51.9C499.841 52.1667 501.041 52.4667 502.174 52.8C502.574 52.9333 503.008 53.0667 503.474 53.2C504.008 53.3333 504.508 53.5 504.974 53.7C505.041 53.7667 505.174 53.9667 505.374 54.3C505.441 54.5667 505.408 54.7 505.274 54.7C505.141 54.6333 505.008 54.6333 504.874 54.7C503.941 55.0333 503.308 55.3667 502.974 55.7C502.708 56.0333 502.608 56.5667 502.674 57.3C502.741 57.8333 502.808 58.3333 502.874 58.8C502.941 59.2667 503.008 59.7667 503.074 60.3C503.141 61.0333 503.041 61.6667 502.774 62.2C502.574 62.7333 502.141 63.1667 501.474 63.5C501.341 64.2333 501.041 64.9 500.574 65.5C500.108 66.0333 499.641 66.5667 499.174 67.1C498.374 68.0333 497.541 68.9667 496.674 69.9C495.874 70.7667 495.108 71.6667 494.374 72.6C493.908 73.2667 493.508 73.9333 493.174 74.6C492.841 75.2667 492.474 75.9667 492.074 76.7C491.208 78.3667 490.341 80.0333 489.474 81.7C488.608 83.3 487.741 84.9333 486.874 86.6C486.608 87.1333 486.708 87.5 487.174 87.7C487.308 87.7667 487.441 87.8 487.574 87.8C487.708 87.8 487.841 87.8 487.974 87.8L490.074 87.2C491.541 86.2667 493.008 85.4 494.474 84.6C495.941 83.8 497.474 83.0667 499.074 82.4C499.941 82.0667 500.741 81.6333 501.474 81.1C502.208 80.5 502.941 79.9333 503.674 79.4C504.208 78.8667 504.708 78.7667 505.174 79.1ZM549.666 81.1C550.332 80.8333 550.866 80.7667 551.266 80.9C551.732 81.0333 551.966 81.5667 551.966 82.5H551.866C551.866 83.0333 551.599 83.4 551.066 83.6C550.332 84.2 549.432 84.9 548.366 85.7C547.299 86.5 546.466 87.4 545.866 88.4C544.399 89.3333 542.999 90.4 541.666 91.6C540.399 92.7333 538.999 93.7667 537.466 94.7V94.8C536.866 95.5333 536.132 95.9333 535.266 96H535.366C535.166 96.3333 534.899 96.5333 534.566 96.6C534.232 96.7333 533.899 96.8667 533.566 97C532.966 97.3333 532.366 97.4 531.766 97.2C531.166 97.0667 530.599 96.8 530.066 96.4C528.799 95.4 527.799 94.3 527.066 93.1C526.399 91.8333 526.132 90.3667 526.266 88.7C526.266 88.5667 526.266 88.4 526.266 88.2C526.332 88 526.366 87.8333 526.366 87.7C526.032 86.8333 525.966 85.9667 526.166 85.1C526.032 85.4333 525.999 85.3 526.066 84.7C526.132 84.0333 526.299 83.2333 526.566 82.3C526.366 82.4333 526.166 82.5667 525.966 82.7C525.832 82.8333 525.666 82.9667 525.466 83.1C524.999 83.5 524.632 83.9333 524.366 84.4C524.099 84.8667 523.766 85.3 523.366 85.7C522.966 86.0333 522.832 86.3667 522.966 86.7C523.099 87.0333 522.932 87.3333 522.466 87.6C522.332 87.7333 522.032 88.0333 521.566 88.5C521.166 88.9667 520.899 89.2667 520.766 89.4C520.699 89.8667 520.332 90.1 519.666 90.1C519.066 91.0333 518.332 92.1667 517.466 93.5C516.666 94.7667 515.399 96.0333 513.666 97.3C513.266 97.6333 512.832 97.9 512.366 98.1C511.899 98.3 511.466 98.5667 511.066 98.9C510.466 99.3 509.899 99.4667 509.366 99.4C508.832 99.3333 508.266 99.1333 507.666 98.8C507.132 98.4667 506.666 98.0667 506.266 97.6C505.866 97.2 505.332 96.9333 504.666 96.8C504.466 96.8 504.299 96.5667 504.166 96.1C503.566 95.0333 503.099 93.9333 502.766 92.8C502.366 91.6 502.132 90.4 502.066 89.2C501.932 86.9333 502.266 84.8333 503.066 82.9C503.066 81.2333 503.566 79.8 504.566 78.6C504.832 78.2667 505.032 77.9333 505.166 77.6C505.232 77.2 505.332 76.8333 505.466 76.5C505.599 76.1667 505.732 75.8667 505.866 75.6C505.999 75.2667 506.299 75.0667 506.766 75C507.032 74.2 507.466 73.5333 508.066 73C508.666 72.4667 509.132 71.8333 509.466 71.1C510.066 69.7 511.032 68.5333 512.366 67.6C512.499 67.5333 512.699 67.3 512.966 66.9C513.299 66.5667 513.566 66.1667 513.766 65.7C513.966 65.2333 514.299 64.8667 514.766 64.6C515.299 64.3333 515.632 63.9333 515.766 63.4C515.899 62.8667 516.232 62.5333 516.766 62.4C517.232 62.2667 517.366 62 517.166 61.6C517.032 61.1333 517.199 60.8333 517.666 60.7C518.066 60.5667 518.266 60.3667 518.266 60.1C518.332 59.8333 518.432 59.5667 518.566 59.3C518.766 58.9667 518.966 58.6667 519.166 58.4C519.366 58.1333 519.666 57.9667 520.066 57.9C520.999 57.9 521.166 57.5667 520.566 56.9C520.632 56.7667 520.699 56.6667 520.766 56.6L521.066 56.3C522.066 55.6333 523.032 55 523.966 54.4C524.966 53.8 525.966 53.1667 526.966 52.5C527.499 52.1667 528.032 51.8333 528.566 51.5C529.099 51.1 529.632 50.7 530.166 50.3C530.899 49.6333 531.566 49.3 532.166 49.3C532.832 49.2333 533.632 49.4667 534.566 50C535.099 50.3333 535.599 50.6667 536.066 51C536.599 51.3333 537.032 51.7667 537.366 52.3C537.966 52.8333 538.366 53.4333 538.566 54.1C538.832 54.7667 539.066 55.4667 539.266 56.2C539.532 57.0667 539.299 57.8667 538.566 58.6C538.632 58.7333 538.599 58.9 538.466 59.1C538.266 59.5 538.132 59.9333 538.066 60.4C538.066 60.8667 537.832 61.2667 537.366 61.6C536.499 63.9333 535.266 65.8667 533.666 67.4C533.332 67.7333 533.099 68.1333 532.966 68.6C532.899 69 532.666 69.3333 532.266 69.6C531.866 69.8667 531.466 70.1333 531.066 70.4C530.732 70.6667 530.399 70.9333 530.066 71.2C529.732 71.4667 529.366 71.5333 528.966 71.4C528.566 71.2667 528.299 71 528.166 70.6C527.966 69.9333 527.866 69.3333 527.866 68.8C527.866 68.2667 528.132 67.6667 528.666 67C529.199 66.3333 529.799 65.7667 530.466 65.3C531.199 64.8333 531.699 64.1333 531.966 63.2C532.699 62.8667 533.166 62.3667 533.366 61.7C533.632 60.9667 533.932 60.3 534.266 59.7C534.199 59.5 534.232 59.2667 534.366 59C534.499 58.7333 534.399 58.5 534.066 58.3C533.332 58.5 532.666 58.7667 532.066 59.1C531.532 59.4333 530.999 59.8333 530.466 60.3C529.666 60.9667 528.866 61.6 528.066 62.2C527.332 62.8 526.632 63.5 525.966 64.3C525.566 64.7667 525.166 65.2 524.766 65.6C524.366 66 524.032 66.5 523.766 67.1C523.499 67.7 523.066 68.2667 522.466 68.8C521.932 69.2667 521.366 69.6667 520.766 70C519.899 70.5333 519.232 71.1333 518.766 71.8C518.032 72.8 517.199 73.8 516.266 74.8C515.399 75.7333 514.832 76.9 514.566 78.3C514.432 78.7667 514.166 79.2 513.766 79.6C512.899 80.4667 512.199 81.4333 511.666 82.5C511.066 83.5 510.532 84.5667 510.066 85.7C509.599 86.6333 508.999 87.5667 508.266 88.5C507.666 89.1 507.266 89.8 507.066 90.6C506.866 91.4 506.599 92.1667 506.266 92.9C506.199 93.1667 506.132 93.4667 506.066 93.8C505.999 94.0667 506.132 94.3 506.466 94.5C506.732 94.7 506.999 94.7667 507.266 94.7C507.466 94.6333 507.699 94.5333 507.966 94.4C508.632 94.1333 509.166 93.8333 509.566 93.5C509.899 93.1667 510.366 92.8333 510.966 92.5C511.299 92.3667 511.799 92.1667 512.466 91.9C513.132 91.6333 513.632 91.4667 513.966 91.4C514.499 90.6 514.866 89.9333 515.066 89.4C515.332 88.8 515.866 88.4 516.666 88.2C516.799 88.1333 516.932 88.1 517.066 88.1C517.266 88.1 517.399 88.0333 517.466 87.9C517.999 87.1667 518.499 86.4667 518.966 85.8C519.499 85.1333 520.032 84.4333 520.566 83.7C520.699 83.5667 520.866 83.5 521.066 83.5C521.266 83.4333 521.432 83.3333 521.566 83.2C521.766 83.1333 521.966 83.1 522.166 83.1C522.366 83.0333 522.532 82.9333 522.666 82.8C523.199 82.2667 523.499 81.7667 523.566 81.3C523.699 80.8333 524.099 80.4 524.766 80C525.099 79.8 525.466 79.6 525.866 79.4C526.332 79.2 526.666 78.7667 526.866 78.1C526.999 77.7 527.299 77.4333 527.766 77.3C528.299 77.1 528.732 76.7667 529.066 76.3C529.266 75.9667 529.566 75.7 529.966 75.5C530.366 74.8333 530.966 74.5333 531.766 74.6C531.899 74.4667 531.999 74.3667 532.066 74.3C532.199 74.2333 532.332 74.1333 532.466 74C532.466 73.9333 532.466 73.8667 532.466 73.8C532.532 73.7333 532.566 73.6333 532.566 73.5C532.699 72.8333 532.899 72.2667 533.166 71.8C533.499 71.2667 534.066 70.9333 534.866 70.8C535.066 70.7333 535.232 70.5667 535.366 70.3C535.566 70.0333 535.766 69.8 535.966 69.6C536.432 68.9333 536.899 68.9 537.366 69.5C537.699 69.9667 537.932 70.3667 538.066 70.7C538.266 70.9667 538.399 71.2667 538.466 71.6C538.599 71.8667 538.732 72.1667 538.866 72.5C539.066 72.8333 539.332 73.2333 539.666 73.7C539.999 74.1667 540.032 74.8333 539.766 75.7C539.432 76.7 538.899 77.5667 538.166 78.3C537.766 78.7667 537.299 79.3667 536.766 80.1C536.232 80.7667 535.699 81.5 535.166 82.3C534.699 83.0333 534.232 83.8 533.766 84.6C533.366 85.3333 533.066 85.9667 532.866 86.5C532.866 86.7 532.899 87.1333 532.966 87.8C533.032 88.4 533.266 88.8667 533.666 89.2C533.866 89.2667 534.199 89.2 534.666 89C535.199 88.8 535.732 88.6 536.266 88.4C536.799 88.1333 537.299 87.9 537.766 87.7C538.299 87.4333 538.666 87.3 538.866 87.3H539.066C539.399 86.5667 539.666 86.1667 539.866 86.1C540.066 85.9667 540.599 85.9667 541.466 86.1C541.732 86.1 541.932 86.1333 542.066 86.2C542.066 86.1333 542.099 86.1 542.166 86.1C542.166 85.7667 542.366 85.6 542.766 85.6C542.832 85.5333 542.866 85.5 542.866 85.5C542.866 85.4333 542.899 85.3667 542.966 85.3C543.032 85.3 543.099 85.2667 543.166 85.2C543.499 84.8 543.966 84.4 544.566 84C545.166 83.6 545.799 83.2 546.466 82.8C547.132 82.4 547.766 82.0667 548.366 81.8C548.966 81.4667 549.399 81.2333 549.666 81.1ZM574.525 76.9C574.992 77.1667 575.292 77.6 575.425 78.2C575.558 78.7333 575.492 79.2 575.225 79.6C575.225 79.6 575.158 79.6667 575.025 79.8C574.092 80.6 573.158 81.4333 572.225 82.3C571.292 83.1 570.225 83.7667 569.025 84.3C568.892 84.7667 568.658 85.1 568.325 85.3C567.925 85.7667 567.425 86.2333 566.825 86.7C566.292 87.1667 565.725 87.6 565.125 88C564.592 88.3333 564.092 88.6333 563.625 88.9C563.225 89.1 562.958 89.2 562.825 89.2C561.958 90.4667 560.925 91.5333 559.725 92.4C558.525 93.2 557.325 94.0333 556.125 94.9C555.725 95.2333 555.325 95.5 554.925 95.7C554.458 95.9 554.025 96.1667 553.625 96.5C553.025 96.9 552.458 97.0667 551.925 97C551.392 96.9333 550.825 96.7333 550.225 96.4C549.692 96.0667 549.225 95.6667 548.825 95.2C548.358 94.8 547.825 94.5333 547.225 94.4C547.092 94.4 546.992 94.3333 546.925 94.2C546.858 94 546.758 93.8333 546.625 93.7C545.425 91.6333 544.725 89.3333 544.525 86.8C544.392 84.5333 544.758 82.4667 545.625 80.6C545.625 79.8 545.725 79.0333 545.925 78.3C546.125 77.5667 546.492 76.8667 547.025 76.2C547.358 75.8667 547.558 75.5333 547.625 75.2C547.692 74.8 547.792 74.4333 547.925 74.1C548.058 73.7667 548.225 73.4667 548.425 73.2C548.558 72.8667 548.825 72.6667 549.225 72.6C549.492 71.8 549.925 71.1333 550.525 70.6C551.125 70.0667 551.592 69.4333 551.925 68.7C552.058 68.3667 552.192 68.1 552.325 67.9C552.392 67.7 552.492 67.5333 552.625 67.4C552.692 67.2 552.825 67.0333 553.025 66.9C553.158 66.7667 553.392 66.6 553.725 66.4C553.858 66.2667 553.958 66.1667 554.025 66.1C554.092 65.9667 554.192 65.8333 554.325 65.7C554.658 65.3 554.892 64.9667 555.025 64.7C555.092 64.4333 555.392 64.1667 555.925 63.9C556.458 63.6333 556.792 63.2333 556.925 62.7C557.058 62.1667 557.392 61.8333 557.925 61.7C558.125 61.6333 558.225 61.5333 558.225 61.4C558.292 61.2 558.325 61 558.325 60.8C558.325 60.6 558.358 60.4333 558.425 60.3C558.492 60.1667 558.625 60.0667 558.825 60C559.225 59.8667 559.425 59.6667 559.425 59.4C559.492 59.0667 559.592 58.7667 559.725 58.5C559.925 58.1667 560.125 57.8667 560.325 57.6C560.525 57.3333 560.825 57.2 561.225 57.2C561.625 57.2 561.892 57.1333 562.025 57C562.158 56.8 562.058 56.5333 561.725 56.2C561.725 56.1333 561.758 56.0333 561.825 55.9C561.958 55.7667 562.092 55.6333 562.225 55.5C563.225 54.9 564.192 54.3 565.125 53.7C566.125 53.0333 567.125 52.4 568.125 51.8C568.658 51.4667 569.192 51.1333 569.725 50.8C570.258 50.4 570.792 49.9667 571.325 49.5C572.058 48.8333 572.725 48.5 573.325 48.5C573.992 48.4333 574.792 48.6667 575.725 49.2C576.258 49.5333 576.758 49.9 577.225 50.3C577.758 50.6333 578.192 51.0667 578.525 51.6C579.125 52.1333 579.525 52.7333 579.725 53.4C579.992 54 580.225 54.6667 580.425 55.4C580.692 56.3333 580.458 57.1667 579.725 57.9C579.792 58.0333 579.725 58.1667 579.525 58.3C579.392 58.7667 579.292 59.2333 579.225 59.7C579.158 60.1667 578.925 60.5667 578.525 60.9C577.725 63.1 576.492 65.0333 574.825 66.7C574.492 67.0333 574.258 67.4333 574.125 67.9C574.058 68.3 573.825 68.6333 573.425 68.9C573.025 69.1667 572.625 69.4333 572.225 69.7C571.892 69.9667 571.558 70.2333 571.225 70.5C570.892 70.7667 570.525 70.8333 570.125 70.7C569.725 70.5667 569.458 70.3 569.325 69.9C569.125 69.2333 569.025 68.6333 569.025 68.1C569.025 67.5 569.292 66.9 569.825 66.3C570.358 65.6333 570.958 65.0667 571.625 64.6C572.358 64.0667 572.858 63.3333 573.125 62.4C573.858 62.0667 574.325 61.5667 574.525 60.9C574.792 60.2333 575.092 59.6 575.425 59C575.358 58.7333 575.392 58.5 575.525 58.3C575.658 58.0333 575.558 57.8 575.225 57.6C574.492 57.8 573.825 58.0667 573.225 58.4C572.692 58.7333 572.158 59.1333 571.625 59.6C570.825 60.2667 570.025 60.9 569.225 61.5C568.492 62.1 567.792 62.8 567.125 63.6C566.725 64.0667 566.325 64.5 565.925 64.9C565.525 65.3 565.192 65.8 564.925 66.4C564.658 67 564.225 67.5333 563.625 68C563.092 68.4667 562.525 68.9 561.925 69.3C561.525 69.5667 561.158 69.8333 560.825 70.1C560.492 70.3667 560.192 70.6667 559.925 71C559.525 71.5333 559.158 71.9667 558.825 72.3C558.558 72.5667 558.292 72.8667 558.025 73.2C557.825 73.4667 557.625 73.8333 557.425 74.3C557.292 74.7 557.158 75.2333 557.025 75.9C556.958 76.3 556.725 76.7333 556.325 77.2C555.392 78.0667 554.658 79.0333 554.125 80.1C553.592 81.1 553.058 82.1667 552.525 83.3C552.325 83.8333 552.058 84.3333 551.725 84.8C551.392 85.2 551.058 85.6333 550.725 86.1C550.192 86.7 549.825 87.4 549.625 88.2C549.358 89 549.092 89.7667 548.825 90.5C548.692 90.7667 548.625 91.0667 548.625 91.4C548.558 91.6667 548.692 91.9 549.025 92.1C549.225 92.3 549.458 92.3667 549.725 92.3C549.992 92.2333 550.225 92.1333 550.425 92C551.092 91.7333 551.758 91.4667 552.425 91.2C553.092 90.9333 553.725 90.6333 554.325 90.3C554.925 89.9667 555.492 89.7667 556.025 89.7C556.558 88.9667 556.958 88.5 557.225 88.3C557.492 88.1 558.025 87.8667 558.825 87.6C559.225 87.6 559.525 87.5 559.725 87.3C559.992 86.9667 560.358 86.7333 560.825 86.6C561.292 86.4 561.758 86.2667 562.225 86.2C562.692 86.0667 563.125 85.9333 563.525 85.8C563.925 85.6667 564.158 85.4333 564.225 85.1C564.358 84.6333 564.692 84.3333 565.225 84.2C565.758 84 566.192 83.6667 566.525 83.2C566.658 82.9333 566.892 82.7 567.225 82.5C567.558 82.3 567.892 82.2 568.225 82.2C569.225 81.6 570.058 80.8667 570.725 80C571.458 79.1333 572.225 78.3333 573.025 77.6C573.225 77.4 573.425 77.2 573.625 77C573.892 76.8 574.192 76.7667 574.525 76.9ZM613.424 65.1C614.358 66.4333 614.558 67.6 614.024 68.6C613.558 69.6 612.858 70.5667 611.924 71.5C611.058 72.4333 610.224 73.4333 609.424 74.5C608.624 75.5667 607.858 76.6333 607.124 77.7C606.391 78.8333 605.591 79.8667 604.724 80.8C603.924 81.7333 603.058 82.6 602.124 83.4C601.524 83.9333 600.924 84.4667 600.324 85C599.791 85.5333 599.291 86.1333 598.824 86.8C598.224 87.6 597.558 88.2667 596.824 88.8C596.158 89.3333 595.458 89.8 594.724 90.2C593.991 90.6 593.191 91 592.324 91.4C591.524 91.7333 590.691 92.1333 589.824 92.6C589.558 92.7333 589.091 92.9667 588.424 93.3C587.824 93.5667 587.191 93.8667 586.524 94.2C585.858 94.4667 585.191 94.7333 584.524 95C583.924 95.2 583.491 95.3333 583.224 95.4C583.024 95.4667 582.724 95.4 582.324 95.2C581.924 95 581.524 94.7333 581.124 94.4C580.724 94.0667 580.358 93.7333 580.024 93.4C579.691 93 579.491 92.6333 579.424 92.3C579.091 91.5667 578.958 90.8667 579.024 90.2C579.091 89.5333 579.591 89.1 580.524 88.9C582.391 88.4333 584.024 87.9333 585.424 87.4C586.891 86.8667 588.224 86.2333 589.424 85.5C590.691 84.7 591.924 83.8 593.124 82.8C594.391 81.8 595.791 80.6 597.324 79.2C598.858 77.8 600.191 76.2333 601.324 74.5C602.524 72.7667 603.691 71.0333 604.824 69.3C605.091 68.9667 605.324 68.6333 605.524 68.3C605.791 67.9 606.091 67.5333 606.424 67.2C606.024 66.5333 605.558 66.2 605.024 66.2C604.558 66.2 604.124 66.3667 603.724 66.7C603.058 67.3667 602.358 67.9667 601.624 68.5C600.891 69.0333 600.158 69.6 599.424 70.2C598.691 70.7333 597.991 71.3333 597.324 72C596.724 72.6667 596.224 73.4333 595.824 74.3C595.491 74.8333 594.891 75.1667 594.024 75.3C593.224 75.3667 592.824 75.8333 592.824 76.7C592.824 76.9 592.724 77.1333 592.524 77.4C592.324 77.6 592.158 77.7 592.024 77.7C591.291 78.0333 590.591 78.4333 589.924 78.9C589.324 79.3667 588.558 79.6 587.624 79.6C587.624 80.8667 586.991 81.7 585.724 82.1C585.258 82.7667 584.791 83.4 584.324 84C583.858 84.6 583.358 85.2 582.824 85.8C581.691 86.8667 580.691 87.9667 579.824 89.1C578.958 90.2333 578.058 91.3667 577.124 92.5C576.791 92.8333 576.524 93.2333 576.324 93.7C576.124 94.1667 575.758 94.5333 575.224 94.8C575.158 95.1333 575.124 95.4333 575.124 95.7C575.058 95.9667 574.958 96.2333 574.824 96.5C574.424 97.5667 573.758 97.7333 572.824 97C572.624 96.9333 572.524 96.8333 572.524 96.7C571.591 95.6333 570.824 94.7667 570.224 94.1C569.558 93.3667 569.158 92.6333 569.024 91.9C568.891 91.1667 569.024 90.2667 569.424 89.2C569.758 88.1333 570.424 86.7 571.424 84.9C572.158 83.7667 572.858 82.6667 573.524 81.6C574.124 80.4667 574.791 79.3333 575.524 78.2C575.858 77.6667 576.291 77.2333 576.824 76.9C577.358 76.5667 577.924 76.2333 578.524 75.9C578.524 75.7 578.558 75.5667 578.624 75.5C579.491 72.5 580.958 70.0333 583.024 68.1C582.891 67.9667 582.791 67.9 582.724 67.9C582.591 67.9 582.491 67.8333 582.424 67.7C582.291 67.3667 582.458 67.1333 582.924 67C583.058 66.4 583.258 65.8667 583.524 65.4C583.791 64.9333 584.224 64.5667 584.824 64.3C585.891 62.3 587.091 60.4333 588.424 58.7C589.824 56.9667 591.324 55.3 592.924 53.7C593.258 53.1667 593.524 52.6 593.724 52C593.924 51.3333 594.491 51.0333 595.424 51.1C596.158 51.2333 596.591 51.6 596.724 52.2C596.858 52.7333 597.091 53.2667 597.424 53.8C599.024 56.6 598.958 59.3667 597.224 62.1C596.358 63.5 595.491 64.8667 594.624 66.2C593.824 67.5333 592.791 68.7333 591.524 69.8C590.791 70.4 590.224 71.1 589.824 71.9C589.491 72.7 589.058 73.4667 588.524 74.2C588.591 74.4 588.624 74.7333 588.624 75.2C588.691 75.6 589.024 75.6333 589.624 75.3C590.358 74.7667 591.058 74.2667 591.724 73.8C592.458 73.3333 593.091 72.7333 593.624 72C594.358 70.9333 595.158 70.0667 596.024 69.4C596.891 68.6667 597.858 68.0333 598.924 67.5C599.458 67.2333 599.958 66.9333 600.424 66.6C600.891 66.2 601.358 65.9667 601.824 65.9C602.624 65.7667 603.091 65.4333 603.224 64.9C603.424 64.3 603.724 63.8333 604.124 63.5C604.724 63.0333 605.291 62.6 605.824 62.2C606.424 61.7333 607.124 61.5667 607.924 61.7C608.258 61.4333 608.558 61.1667 608.824 60.9C609.091 60.6333 609.358 60.4 609.624 60.2C611.158 59.0667 612.258 59.4 612.924 61.2C613.058 61.5333 613.124 61.9 613.124 62.3C613.191 62.6333 613.258 62.9667 613.324 63.3C613.391 63.6333 613.391 63.9667 613.324 64.3C613.258 64.6333 613.291 64.9 613.424 65.1ZM642.124 76.5C642.124 76.8333 642.091 77.2 642.024 77.6C642.024 77.9333 641.791 78.2667 641.324 78.6C640.991 79.3333 640.458 79.8333 639.724 80.1C639.191 80.5 638.824 80.8 638.624 81C638.424 81.4667 638.091 81.7333 637.624 81.8C637.491 82.3333 637.191 82.6333 636.724 82.7C636.258 83.8333 635.391 84.1333 634.124 83.6C633.191 85.0667 632.024 86.4 630.624 87.6C629.224 88.8 627.724 89.7667 626.124 90.5C625.524 90.9667 624.891 91.4333 624.224 91.9C623.624 92.3 622.991 92.7333 622.324 93.2C621.991 93.3333 621.624 93.3667 621.224 93.3C620.891 93.2333 620.591 93.3667 620.324 93.7C619.391 94.9 618.324 95.6667 617.124 96C616.058 96.5333 615.358 96.8 615.024 96.8C614.691 96.8 614.224 96.5333 613.624 96C612.958 95.2667 612.424 94.5 612.024 93.7C611.624 92.8333 611.524 91.8667 611.724 90.8C610.858 89.8667 610.458 88.8333 610.524 87.7C610.591 86.5667 610.858 85.5333 611.324 84.6C611.724 83.6667 612.258 82.4667 612.924 81C613.591 79.5333 614.291 78.0333 615.024 76.5C615.758 74.9667 616.524 73.5 617.324 72.1C618.124 70.7 618.858 69.6 619.524 68.8C619.524 68.5333 619.624 68.2667 619.824 68C620.024 67.6667 620.258 67.3333 620.524 67C620.791 66.6667 621.024 66.3333 621.224 66C621.491 65.6667 621.658 65.4 621.724 65.2C621.858 65.0667 621.824 64.8333 621.624 64.5C621.491 64.1667 621.258 64.0667 620.924 64.2C620.791 64.2667 620.358 64.5667 619.624 65.1C618.891 65.6333 618.091 66.2 617.224 66.8C616.424 67.4 615.624 67.9667 614.824 68.5C614.091 69.0333 613.691 69.3667 613.624 69.5C613.158 70.3 612.558 70.3667 611.824 69.7C611.424 69.3667 611.291 69.1 611.424 68.9C611.558 68.6333 611.791 68.3333 612.124 68C612.324 67.7333 612.524 67.5333 612.724 67.4C613.858 66.3333 615.424 65.1667 617.424 63.9C619.491 62.5667 621.724 61 624.124 59.2C624.591 58.6667 625.058 58.1333 625.524 57.6C626.058 57 626.558 56.4333 627.024 55.9C627.624 54.9667 628.491 54.7667 629.624 55.3C629.958 55.5 630.291 55.5333 630.624 55.4C630.958 55.2 631.258 54.9333 631.524 54.6C631.858 54.1333 632.191 53.6667 632.524 53.2C632.924 52.7333 633.291 52.2667 633.624 51.8C633.958 51.4 634.324 51.2 634.724 51.2C635.191 51.2 635.591 51.3667 635.924 51.7C636.724 52.8333 637.391 54 637.924 55.2C638.458 56.3333 638.691 57.6 638.624 59C638.624 59.7333 638.391 60.4 637.924 61C637.524 61.8667 636.924 62.7 636.124 63.5C635.124 64.4333 634.024 65.6667 632.824 67.2C631.691 68.7333 630.524 70.3333 629.324 72C628.191 73.6667 627.058 75.3 625.924 76.9C624.858 78.4333 623.891 79.7333 623.024 80.8C622.158 81.9333 621.424 83.1333 620.824 84.4C620.224 85.6 619.591 86.8 618.924 88C619.324 88.7333 619.791 88.9667 620.324 88.7C621.858 87.9667 623.358 87.2333 624.824 86.5C626.291 85.7 627.758 84.8667 629.224 84C629.758 83.6667 630.158 83.2333 630.424 82.7C630.758 82.1 631.291 81.7667 632.024 81.7C632.224 81.1 632.558 80.8 633.024 80.8C634.091 79.8667 635.124 78.9333 636.124 78C637.124 77.0667 638.224 76.2333 639.424 75.5C639.558 74.9667 639.824 74.7333 640.224 74.8C640.758 74.6667 641.058 74.6 641.124 74.6C641.924 74.5333 642.258 74.8333 642.124 75.5C641.724 75.1 641.391 74.8 641.124 74.6C641.458 75 641.791 75.3 642.124 75.5V76.5ZM637.624 81.8C638.024 81.4 638.358 81.1333 638.624 81C638.158 81.1333 637.824 81.4 637.624 81.8C637.491 81.9333 637.324 82.0667 637.124 82.2C636.991 82.3333 636.858 82.5 636.724 82.7C636.858 82.5667 636.991 82.4333 637.124 82.3C637.324 82.1 637.491 81.9333 637.624 81.8Z" fill="#FA1451"/>
<g filter="url(#filter0_d)">
<path d="M119.946 144.5H142.176V147.74H123.456V157.91H133.356C135.066 157.91 136.611 158.09 137.991 158.45C139.401 158.81 140.616 159.35 141.636 160.07C142.656 160.79 143.436 161.705 143.976 162.815C144.546 163.895 144.831 165.17 144.831 166.64V166.73C144.831 168.29 144.516 169.655 143.886 170.825C143.256 171.995 142.401 172.97 141.321 173.75C140.241 174.5 138.966 175.07 137.496 175.46C136.056 175.82 134.511 176 132.861 176H119.946V144.5ZM132.996 172.76C134.196 172.76 135.291 172.64 136.281 172.4C137.301 172.13 138.171 171.755 138.891 171.275C139.641 170.765 140.226 170.15 140.646 169.43C141.066 168.68 141.276 167.825 141.276 166.865V166.775C141.276 165.785 141.066 164.93 140.646 164.21C140.256 163.49 139.701 162.905 138.981 162.455C138.261 161.975 137.406 161.63 136.416 161.42C135.426 161.18 134.346 161.06 133.176 161.06H123.456V172.76H132.996ZM166.168 176.54C163.768 176.54 161.578 176.105 159.598 175.235C157.648 174.365 155.968 173.195 154.558 171.725C153.148 170.225 152.053 168.5 151.273 166.55C150.523 164.57 150.148 162.5 150.148 160.34V160.25C150.148 158.09 150.538 156.02 151.318 154.04C152.098 152.06 153.193 150.335 154.603 148.865C156.013 147.365 157.708 146.18 159.688 145.31C161.668 144.41 163.858 143.96 166.258 143.96C168.658 143.96 170.833 144.395 172.783 145.265C174.763 146.135 176.458 147.32 177.868 148.82C179.278 150.29 180.358 152.015 181.108 153.995C181.888 155.945 182.278 158 182.278 160.16V160.25C182.278 162.41 181.888 164.48 181.108 166.46C180.328 168.44 179.233 170.18 177.823 171.68C176.413 173.15 174.718 174.335 172.738 175.235C170.758 176.105 168.568 176.54 166.168 176.54ZM166.258 173.255C168.058 173.255 169.708 172.925 171.208 172.265C172.738 171.575 174.043 170.645 175.123 169.475C176.203 168.305 177.043 166.94 177.643 165.38C178.273 163.82 178.588 162.14 178.588 160.34V160.25C178.588 158.45 178.273 156.77 177.643 155.21C177.043 153.62 176.188 152.24 175.078 151.07C173.968 149.9 172.648 148.97 171.118 148.28C169.618 147.59 167.968 147.245 166.168 147.245C164.368 147.245 162.703 147.59 161.173 148.28C159.673 148.94 158.383 149.855 157.303 151.025C156.223 152.195 155.368 153.56 154.738 155.12C154.138 156.68 153.838 158.36 153.838 160.16V160.25C153.838 162.05 154.138 163.745 154.738 165.335C155.368 166.895 156.238 168.26 157.348 169.43C158.458 170.6 159.763 171.53 161.263 172.22C162.793 172.91 164.458 173.255 166.258 173.255ZM216.46 176H212.5L200.755 149L189.055 176H185.23L199.225 144.275H202.42L216.46 176ZM233.423 144.275H236.753L251.108 176H247.283L243.593 167.675H226.448L222.713 176H219.068L233.423 144.275ZM242.198 164.48L235.043 148.415L227.843 164.48H242.198ZM257.319 144.5H260.919L272.394 161.69L283.869 144.5H287.469V176H283.914V150.485L272.439 167.36H272.259L260.784 150.53V176H257.319V144.5ZM310.103 172.715L322.613 144.275H326.348L338.858 172.715H341.873V182.57H338.453V176H310.508V182.57H307.088V172.715H310.103ZM313.838 172.805H334.988L324.458 148.325L313.838 172.805ZM347.978 144.5H370.748V147.74H351.533V158.495H368.723V161.735H351.533V172.76H370.973V176H347.978V144.5ZM392.525 176.54C390.245 176.54 388.145 176.12 386.225 175.28C384.305 174.44 382.64 173.3 381.23 171.86C379.82 170.39 378.71 168.665 377.9 166.685C377.12 164.705 376.73 162.59 376.73 160.34V160.25C376.73 158.03 377.12 155.93 377.9 153.95C378.71 151.97 379.82 150.245 381.23 148.775C382.64 147.275 384.32 146.105 386.27 145.265C388.22 144.395 390.35 143.96 392.66 143.96C394.1 143.96 395.39 144.08 396.53 144.32C397.7 144.56 398.78 144.905 399.77 145.355C400.76 145.775 401.675 146.3 402.515 146.93C403.355 147.53 404.165 148.205 404.945 148.955L402.515 151.565C401.165 150.305 399.71 149.27 398.15 148.46C396.62 147.65 394.775 147.245 392.615 147.245C390.875 147.245 389.255 147.575 387.755 148.235C386.285 148.895 384.995 149.81 383.885 150.98C382.805 152.15 381.95 153.53 381.32 155.12C380.72 156.68 380.42 158.36 380.42 160.16V160.25C380.42 162.08 380.72 163.79 381.32 165.38C381.95 166.94 382.805 168.305 383.885 169.475C384.995 170.645 386.285 171.575 387.755 172.265C389.255 172.925 390.875 173.255 392.615 173.255C394.775 173.255 396.635 172.865 398.195 172.085C399.755 171.275 401.285 170.15 402.785 168.71L405.125 171.005C404.315 171.845 403.46 172.61 402.56 173.3C401.69 173.96 400.745 174.53 399.725 175.01C398.705 175.49 397.61 175.865 396.44 176.135C395.27 176.405 393.965 176.54 392.525 176.54ZM411.523 144.5H434.293V147.74H415.078V158.495H432.268V161.735H415.078V172.76H434.518V176H411.523V144.5ZM466.78 176H463.405V161.825H445.225V176H441.67V144.5H445.225V158.495H463.405V144.5H466.96V172.715H470.2V182.57H466.78V176ZM475.835 171.275H479.975V176H475.835V171.275ZM486.821 171.275H490.961V176H486.821V171.275ZM497.808 171.275H501.948V176H497.808V171.275Z" fill="#FA1451"/>
</g>
<defs>
<filter id="filter0_d" x="115.946" y="143.96" width="390.001" height="46.61" filterUnits="userSpaceOnUse" color-interpolation-filters="sRGB">
<feFlood flood-opacity="0" result="BackgroundImageFix"/>
<feColorMatrix in="SourceAlpha" type="matrix" values="0 0 0 0 0 0 0 0 0 0 0 0 0 0 0 0 0 0 127 0"/>
<feOffset dy="4"/>
<feGaussianBlur stdDeviation="2"/>
<feColorMatrix type="matrix" values="0 0 0 0 0 0 0 0 0 0 0 0 0 0 0 0 0 0 0.25 0"/>
<feBlend mode="normal" in2="BackgroundImageFix" result="effect1_dropShadow"/>
<feBlend mode="normal" in="SourceGraphic" in2="effect1_dropShadow" result="shape"/>
</filter>
</defs>
</svg>
