<?xml version="1.0" standalone="no"?>
<!DOCTYPE svg PUBLIC "-//W3C//DTD SVG 20010904//EN"
 "http://www.w3.org/TR/2001/REC-SVG-20010904/DTD/svg10.dtd">
<svg version="1.0" xmlns="http://www.w3.org/2000/svg"
 width="992.000000pt" height="1280.000000pt" viewBox="0 0 992.000000 1280.000000"
 preserveAspectRatio="xMidYMid meet">
<metadata>
Created by potrace 1.15, written by Peter Selinger 2001-2017
</metadata>
<g transform="translate(0.000000,1280.000000) scale(0.100000,-0.100000)"
fill="#000000" stroke="none">
<path d="M4625 12790 c-55 -5 -194 -13 -310 -19 -115 -5 -262 -17 -325 -26
-843 -118 -1581 -583 -2054 -1293 -320 -481 -458 -920 -511 -1631 -11 -146
-15 -372 -15 -890 0 -639 7 -879 29 -1029 9 -60 22 -53 -127 -72 -440 -56
-784 -287 -994 -666 -167 -301 -249 -640 -300 -1229 -20 -228 -19 -4096 1
-4245 98 -743 535 -1232 1318 -1474 616 -191 1343 -238 2783 -181 534 21 1013
19 1598 -7 651 -28 1484 -31 1791 -5 570 48 975 132 1319 273 550 226 898 603
1027 1111 64 253 60 108 60 2393 0 2147 0 2169 -41 2510 -59 500 -210 879
-449 1129 -208 218 -445 333 -815 393 l-139 23 -4 1025 c-4 1075 -5 1093 -52
1375 -92 545 -303 1038 -618 1444 -97 125 -317 349 -437 445 -421 337 -934
545 -1500 610 -261 30 -1034 53 -1235 36z m1580 -170 c13 -5 14 -9 5 -9 -8 0
-24 4 -35 9 -13 5 -14 9 -5 9 8 0 24 -4 35 -9z m156 -49 c376 -128 728 -318
1015 -546 121 -97 337 -310 428 -425 76 -94 196 -273 247 -365 49 -90 28 -63
-46 60 -231 383 -604 741 -1019 979 -193 111 -362 189 -601 277 -142 53 -159
66 -24 20z m-801 -1341 c170 -30 277 -62 395 -119 128 -62 207 -119 312 -223
256 -252 406 -640 465 -1198 10 -93 13 -335 13 -947 0 -452 -3 -824 -7 -828
-3 -4 -152 -13 -330 -21 -888 -39 -1139 -44 -2179 -44 l-1047 0 -1 306 c0 168
-3 310 -7 315 -10 16 -5 734 6 911 30 472 90 779 205 1054 81 194 172 330 312
465 171 166 365 264 631 320 159 34 238 38 682 34 387 -2 436 -4 550 -25z"/>
</g>
</svg>
