<svg width="54" height="34" viewBox="0 0 54 34" fill="none" xmlns="http://www.w3.org/2000/svg">
<path d="M5.474 13.204C4.81667 13.204 4.21033 13.085 3.655 12.847C3.09967 12.5977 2.618 12.269 2.21 11.861C1.802 11.4417 1.48467 10.96 1.258 10.416C1.03133 9.86067 0.918 9.27133 0.918 8.648V8.614C0.918 7.99067 1.03133 7.40133 1.258 6.846C1.48467 6.29067 1.802 5.80333 2.21 5.384C2.618 4.96467 3.09967 4.636 3.655 4.398C4.22167 4.14867 4.83933 4.024 5.508 4.024C6.16533 4.024 6.77167 4.14867 7.327 4.398C7.89367 4.636 8.381 4.96467 8.789 5.384C9.197 5.792 9.51433 6.27367 9.741 6.829C9.96767 7.373 10.081 7.95667 10.081 8.58V8.614C10.081 9.23733 9.962 9.82667 9.724 10.382C9.49733 10.9373 9.18 11.4247 8.772 11.844C8.364 12.2633 7.87667 12.5977 7.31 12.847C6.74333 13.085 6.13133 13.204 5.474 13.204ZM5.508 12.031C5.984 12.031 6.42033 11.9403 6.817 11.759C7.21367 11.5777 7.55367 11.334 7.837 11.028C8.12033 10.722 8.34133 10.365 8.5 9.957C8.65867 9.549 8.738 9.11267 8.738 8.648V8.614C8.738 8.138 8.653 7.696 8.483 7.288C8.32433 6.86867 8.09767 6.506 7.803 6.2C7.50833 5.88267 7.16267 5.63333 6.766 5.452C6.36933 5.27067 5.93867 5.18 5.474 5.18C4.998 5.18 4.56167 5.27067 4.165 5.452C3.76833 5.63333 3.42833 5.877 3.145 6.183C2.873 6.489 2.65767 6.85167 2.499 7.271C2.34033 7.679 2.261 8.11533 2.261 8.58V8.614C2.261 9.09 2.34033 9.53767 2.499 9.957C2.669 10.365 2.89567 10.722 3.179 11.028C3.47367 11.334 3.81933 11.5777 4.216 11.759C4.61267 11.9403 5.04333 12.031 5.508 12.031ZM12.4522 4.211H13.7612V5.741C14.0559 5.265 14.4412 4.86267 14.9172 4.534C15.3932 4.194 16.0109 4.024 16.7702 4.024C17.3029 4.024 17.7732 4.109 18.1812 4.279C18.6006 4.449 18.9519 4.69267 19.2352 5.01C19.5299 5.316 19.7509 5.68433 19.8982 6.115C20.0569 6.54567 20.1362 7.02167 20.1362 7.543V13H18.8272V7.866C18.8272 7.05 18.6176 6.404 18.1982 5.928C17.7789 5.452 17.1782 5.214 16.3962 5.214C16.0222 5.214 15.6709 5.282 15.3422 5.418C15.0249 5.54267 14.7472 5.72967 14.5092 5.979C14.2712 6.217 14.0842 6.506 13.9482 6.846C13.8236 7.186 13.7612 7.56 13.7612 7.968V13H12.4522V4.211ZM23.0468 0.59H24.3558V13H23.0468V0.59ZM27.4276 0.844999H28.9236V2.29H27.4276V0.844999ZM27.5126 4.211H28.8216V13H27.5126V4.211ZM31.8595 4.211H33.1685V5.741C33.4631 5.265 33.8485 4.86267 34.3245 4.534C34.8005 4.194 35.4181 4.024 36.1775 4.024C36.7101 4.024 37.1805 4.109 37.5885 4.279C38.0078 4.449 38.3591 4.69267 38.6425 5.01C38.9371 5.316 39.1581 5.68433 39.3055 6.115C39.4641 6.54567 39.5435 7.02167 39.5435 7.543V13H38.2345V7.866C38.2345 7.05 38.0248 6.404 37.6055 5.928C37.1861 5.452 36.5855 5.214 35.8035 5.214C35.4295 5.214 35.0781 5.282 34.7495 5.418C34.4321 5.54267 34.1545 5.72967 33.9165 5.979C33.6785 6.217 33.4915 6.506 33.3555 6.846C33.2308 7.186 33.1685 7.56 33.1685 7.968V13H31.8595V4.211ZM46.177 13.204C45.5764 13.204 45.0097 13.0963 44.477 12.881C43.9444 12.6543 43.4797 12.3427 43.083 11.946C42.6864 11.538 42.369 11.0563 42.131 10.501C41.9044 9.93433 41.791 9.311 41.791 8.631V8.597C41.791 7.96233 41.893 7.36733 42.097 6.812C42.3124 6.25667 42.607 5.775 42.981 5.367C43.355 4.94767 43.797 4.619 44.307 4.381C44.8284 4.143 45.395 4.024 46.007 4.024C46.653 4.024 47.231 4.14867 47.741 4.398C48.251 4.636 48.6817 4.96467 49.033 5.384C49.3844 5.80333 49.6507 6.29633 49.832 6.863C50.0134 7.41833 50.104 8.019 50.104 8.665C50.104 8.75567 50.104 8.82933 50.104 8.886C50.104 8.94267 50.0984 9.01067 50.087 9.09H43.117C43.1624 9.566 43.2757 9.991 43.457 10.365C43.6384 10.7277 43.865 11.0393 44.137 11.3C44.4204 11.5493 44.7377 11.742 45.089 11.878C45.4404 12.0027 45.8144 12.065 46.211 12.065C46.823 12.065 47.3444 11.9517 47.775 11.725C48.217 11.4983 48.6194 11.198 48.982 10.824L49.798 11.555C49.356 12.0537 48.8517 12.456 48.285 12.762C47.7184 13.0567 47.0157 13.204 46.177 13.204ZM48.778 8.121C48.744 7.72433 48.659 7.34467 48.523 6.982C48.3984 6.61933 48.217 6.302 47.979 6.03C47.7524 5.758 47.469 5.54267 47.129 5.384C46.8004 5.214 46.415 5.129 45.973 5.129C45.5877 5.129 45.2307 5.20833 44.902 5.367C44.5734 5.51433 44.2844 5.724 44.035 5.996C43.7857 6.25667 43.5817 6.56833 43.423 6.931C43.2644 7.29367 43.1624 7.69033 43.117 8.121H48.778ZM4.369 33.17C3.73433 33.17 3.094 33.0567 2.448 32.83C1.802 32.592 1.22967 32.2747 0.731 31.878L1.394 30.943C1.87 31.3057 2.363 31.5833 2.873 31.776C3.39433 31.9687 3.91567 32.065 4.437 32.065C4.96967 32.065 5.406 31.9403 5.746 31.691C6.086 31.4417 6.256 31.1017 6.256 30.671V30.637C6.256 30.4217 6.19367 30.2347 6.069 30.076C5.95567 29.9173 5.797 29.7813 5.593 29.668C5.389 29.5433 5.151 29.4357 4.879 29.345C4.61833 29.2543 4.34633 29.1693 4.063 29.09C3.723 28.988 3.37733 28.8803 3.026 28.767C2.686 28.6423 2.37433 28.4893 2.091 28.308C1.819 28.1267 1.59233 27.9 1.411 27.628C1.241 27.356 1.156 27.016 1.156 26.608V26.574C1.156 26.2 1.22967 25.86 1.377 25.554C1.52433 25.2367 1.72833 24.9703 1.989 24.755C2.261 24.5283 2.57833 24.3583 2.941 24.245C3.315 24.1203 3.71733 24.058 4.148 24.058C4.692 24.058 5.24167 24.1487 5.797 24.33C6.35233 24.5 6.85667 24.7323 7.31 25.027L6.715 26.013C6.307 25.7523 5.87633 25.5483 5.423 25.401C4.981 25.2423 4.54467 25.163 4.114 25.163C3.59267 25.163 3.179 25.2877 2.873 25.537C2.567 25.775 2.414 26.0753 2.414 26.438V26.472C2.414 26.676 2.47633 26.8573 2.601 27.016C2.72567 27.1633 2.89 27.2937 3.094 27.407C3.30933 27.5203 3.553 27.6223 3.825 27.713C4.097 27.8037 4.38033 27.8943 4.675 27.985C5.015 28.087 5.34933 28.2003 5.678 28.325C6.018 28.4497 6.324 28.6083 6.596 28.801C6.868 28.9937 7.08333 29.226 7.242 29.498C7.412 29.77 7.497 30.1043 7.497 30.501V30.535C7.497 30.9543 7.412 31.3283 7.242 31.657C7.08333 31.9743 6.86233 32.2463 6.579 32.473C6.307 32.6997 5.97833 32.8753 5.593 33C5.219 33.1133 4.811 33.17 4.369 33.17ZM13.8898 33.204C13.2438 33.204 12.6431 33.085 12.0878 32.847C11.5438 32.5977 11.0678 32.269 10.6598 31.861C10.2631 31.4417 9.95146 30.9543 9.7248 30.399C9.49813 29.8437 9.3848 29.26 9.3848 28.648V28.614C9.3848 27.9907 9.49813 27.4013 9.7248 26.846C9.95146 26.2907 10.2631 25.8033 10.6598 25.384C11.0678 24.9647 11.5438 24.636 12.0878 24.398C12.6431 24.1487 13.2438 24.024 13.8898 24.024C14.3091 24.024 14.6888 24.0637 15.0288 24.143C15.3688 24.2223 15.6805 24.3357 15.9638 24.483C16.2471 24.619 16.5078 24.7833 16.7458 24.976C16.9838 25.1687 17.2048 25.3727 17.4088 25.588L16.5418 26.506C16.1905 26.1433 15.8051 25.8317 15.3858 25.571C14.9778 25.3103 14.4735 25.18 13.8728 25.18C13.4308 25.18 13.0171 25.2707 12.6318 25.452C12.2465 25.622 11.9121 25.86 11.6288 26.166C11.3455 26.472 11.1245 26.8347 10.9658 27.254C10.8071 27.662 10.7278 28.104 10.7278 28.58V28.614C10.7278 29.09 10.8071 29.5377 10.9658 29.957C11.1358 30.365 11.3625 30.7277 11.6458 31.045C11.9405 31.351 12.2805 31.5947 12.6658 31.776C13.0625 31.946 13.4931 32.031 13.9578 32.031C14.5245 32.031 15.0231 31.9063 15.4538 31.657C15.8958 31.4077 16.2925 31.096 16.6438 30.722L17.4768 31.504C17.0348 32.0027 16.5305 32.4107 15.9638 32.728C15.4085 33.0453 14.7171 33.204 13.8898 33.204ZM19.6407 20.59H20.9497V25.741C21.2444 25.265 21.6297 24.8627 22.1057 24.534C22.5817 24.194 23.1994 24.024 23.9587 24.024C24.4914 24.024 24.9617 24.109 25.3697 24.279C25.789 24.449 26.1404 24.6927 26.4237 25.01C26.7184 25.316 26.9394 25.6843 27.0867 26.115C27.2454 26.5457 27.3247 27.0217 27.3247 27.543V33H26.0157V27.866C26.0157 27.05 25.806 26.404 25.3867 25.928C24.9674 25.452 24.3667 25.214 23.5847 25.214C23.2107 25.214 22.8594 25.282 22.5307 25.418C22.2134 25.5427 21.9357 25.7297 21.6977 25.979C21.4597 26.217 21.2727 26.506 21.1367 26.846C21.012 27.186 20.9497 27.56 20.9497 27.968V33H19.6407V20.59ZM34.1283 33.204C33.471 33.204 32.8646 33.085 32.3093 32.847C31.754 32.5977 31.2723 32.269 30.8643 31.861C30.4563 31.4417 30.139 30.96 29.9123 30.416C29.6856 29.8607 29.5723 29.2713 29.5723 28.648V28.614C29.5723 27.9907 29.6856 27.4013 29.9123 26.846C30.139 26.2907 30.4563 25.8033 30.8643 25.384C31.2723 24.9647 31.754 24.636 32.3093 24.398C32.876 24.1487 33.4936 24.024 34.1623 24.024C34.8196 24.024 35.426 24.1487 35.9813 24.398C36.548 24.636 37.0353 24.9647 37.4433 25.384C37.8513 25.792 38.1686 26.2737 38.3953 26.829C38.622 27.373 38.7353 27.9567 38.7353 28.58V28.614C38.7353 29.2373 38.6163 29.8267 38.3783 30.382C38.1516 30.9373 37.8343 31.4247 37.4263 31.844C37.0183 32.2633 36.531 32.5977 35.9643 32.847C35.3976 33.085 34.7856 33.204 34.1283 33.204ZM34.1623 32.031C34.6383 32.031 35.0746 31.9403 35.4713 31.759C35.868 31.5777 36.208 31.334 36.4913 31.028C36.7746 30.722 36.9956 30.365 37.1543 29.957C37.313 29.549 37.3923 29.1127 37.3923 28.648V28.614C37.3923 28.138 37.3073 27.696 37.1373 27.288C36.9786 26.8687 36.752 26.506 36.4573 26.2C36.1626 25.8827 35.817 25.6333 35.4203 25.452C35.0236 25.2707 34.593 25.18 34.1283 25.18C33.6523 25.18 33.216 25.2707 32.8193 25.452C32.4226 25.6333 32.0826 25.877 31.7993 26.183C31.5273 26.489 31.312 26.8517 31.1533 27.271C30.9946 27.679 30.9153 28.1153 30.9153 28.58V28.614C30.9153 29.09 30.9946 29.5377 31.1533 29.957C31.3233 30.365 31.55 30.722 31.8333 31.028C32.128 31.334 32.4736 31.5777 32.8703 31.759C33.267 31.9403 33.6976 32.031 34.1623 32.031ZM45.1185 33.204C44.4612 33.204 43.8549 33.085 43.2995 32.847C42.7442 32.5977 42.2625 32.269 41.8545 31.861C41.4465 31.4417 41.1292 30.96 40.9025 30.416C40.6759 29.8607 40.5625 29.2713 40.5625 28.648V28.614C40.5625 27.9907 40.6759 27.4013 40.9025 26.846C41.1292 26.2907 41.4465 25.8033 41.8545 25.384C42.2625 24.9647 42.7442 24.636 43.2995 24.398C43.8662 24.1487 44.4839 24.024 45.1525 24.024C45.8099 24.024 46.4162 24.1487 46.9715 24.398C47.5382 24.636 48.0255 24.9647 48.4335 25.384C48.8415 25.792 49.1589 26.2737 49.3855 26.829C49.6122 27.373 49.7255 27.9567 49.7255 28.58V28.614C49.7255 29.2373 49.6065 29.8267 49.3685 30.382C49.1419 30.9373 48.8245 31.4247 48.4165 31.844C48.0085 32.2633 47.5212 32.5977 46.9545 32.847C46.3879 33.085 45.7759 33.204 45.1185 33.204ZM45.1525 32.031C45.6285 32.031 46.0649 31.9403 46.4615 31.759C46.8582 31.5777 47.1982 31.334 47.4815 31.028C47.7649 30.722 47.9859 30.365 48.1445 29.957C48.3032 29.549 48.3825 29.1127 48.3825 28.648V28.614C48.3825 28.138 48.2975 27.696 48.1275 27.288C47.9689 26.8687 47.7422 26.506 47.4475 26.2C47.1529 25.8827 46.8072 25.6333 46.4105 25.452C46.0139 25.2707 45.5832 25.18 45.1185 25.18C44.6425 25.18 44.2062 25.2707 43.8095 25.452C43.4129 25.6333 43.0729 25.877 42.7895 26.183C42.5175 26.489 42.3022 26.8517 42.1435 27.271C41.9849 27.679 41.9055 28.1153 41.9055 28.58V28.614C41.9055 29.09 41.9849 29.5377 42.1435 29.957C42.3135 30.365 42.5402 30.722 42.8235 31.028C43.1182 31.334 43.4639 31.5777 43.8605 31.759C44.2572 31.9403 44.6879 32.031 45.1525 32.031ZM52.2158 20.59H53.5248V33H52.2158V20.59Z" fill="#FA1451"/>
</svg>
