<svg width="39" height="39" viewBox="0 0 39 39" fill="none" xmlns="http://www.w3.org/2000/svg">
<path fill-rule="evenodd" clip-rule="evenodd" d="M33.3178 5.66766C29.6516 2.01475 24.7759 0.00214233 19.5816 0C8.87818 0 0.167188 8.66907 0.162883 19.3241C0.161448 22.7302 1.05551 26.0551 2.75489 28.9858L0 39L10.2941 36.3126C13.1306 37.8524 16.3239 38.6639 19.5737 38.6648H19.5818C30.284 38.6648 38.9959 29.9951 39 19.3396C39.0022 14.1756 36.9842 9.32034 33.3178 5.66766ZM19.5816 35.4011H19.5749C16.6789 35.3999 13.8386 34.6254 11.3602 33.1621L10.7711 32.8139L4.66237 34.4087L6.29287 28.4814L5.90898 27.8737C4.29331 25.3162 3.44015 22.3603 3.44158 19.3253C3.44493 10.4691 10.6854 3.26396 19.588 3.26396C23.899 3.26539 27.9515 4.93832 30.9987 7.97448C34.0458 11.0106 35.723 15.0463 35.7215 19.3384C35.7177 28.1953 28.4777 35.4011 19.5816 35.4011ZM28.4346 23.371C27.9496 23.1291 25.564 21.9613 25.1191 21.7999C24.6747 21.6388 24.3508 21.5585 24.0277 22.0418C23.7041 22.525 22.7744 23.6128 22.4912 23.9349C22.208 24.2572 21.9253 24.2976 21.44 24.0558C20.9547 23.8142 19.3914 23.3041 17.538 21.659C16.0957 20.3786 15.122 18.7973 14.8388 18.3141C14.5561 17.8304 14.8364 17.5943 15.0517 17.3286C15.5769 16.6795 16.1029 15.999 16.2646 15.6769C16.4265 15.3546 16.3454 15.0725 16.2239 14.8309C16.1029 14.5893 15.1325 12.2125 14.7283 11.2453C14.3342 10.3042 13.9345 10.4313 13.6365 10.4165C13.3538 10.4025 13.0301 10.3996 12.7065 10.3996C12.3832 10.3996 11.8574 10.5203 11.4126 11.004C10.9679 11.4874 9.7146 12.6555 9.7146 15.0323C9.7146 17.4091 11.4532 19.7052 11.6957 20.0275C11.9383 20.3498 15.1172 25.2272 19.9843 27.3186C21.142 27.8165 22.0456 28.1134 22.7505 28.3359C23.9129 28.7035 24.9703 28.6516 25.8065 28.5273C26.7388 28.3885 28.6769 27.359 29.0816 26.2312C29.4858 25.1032 29.4858 24.1365 29.3643 23.9349C29.2433 23.7335 28.9197 23.6128 28.4346 23.371Z" fill="#FA1451"/>
</svg>
