<svg width="28" height="28" viewBox="0 0 28 28" fill="none" xmlns="http://www.w3.org/2000/svg">
<path d="M25.7533 18.3788C24.039 18.3788 22.3558 18.1107 20.7608 17.5836C19.9792 17.317 19.0183 17.5615 18.5413 18.0515L15.393 20.4281C11.7418 18.4791 9.4928 16.2308 7.57043 12.6071L9.87714 9.54078C10.4764 8.94228 10.6914 8.06801 10.4339 7.2477C9.90449 5.64426 9.63557 3.96185 9.63557 2.24685C9.63565 1.00793 8.62772 0 7.38886 0H2.24678C1.00793 0 0 1.00793 0 2.24678C0 16.4473 11.5528 28 25.7533 28C26.9921 28 28.0001 26.9921 28.0001 25.7532V20.6255C28 19.3867 26.9921 18.3788 25.7533 18.3788Z" fill="#FA1451"/>
</svg>
