<svg width="87" height="29" viewBox="0 0 87 29" fill="none" xmlns="http://www.w3.org/2000/svg">
<path d="M13.04 28.44C9.28 28.44 6.32 27.4 4.16 25.32C2 23.24 0.92 20.1333 0.92 16V-1.90735e-06H7.08V15.84C7.08 18.1333 7.61333 19.8667 8.68 21.04C9.74667 22.1867 11.2267 22.76 13.12 22.76C15.0133 22.76 16.4933 22.2 17.56 21.08C18.6267 19.96 19.16 18.28 19.16 16.04V-1.90735e-06H25.32V15.8C25.32 17.9333 25.0267 19.7867 24.44 21.36C23.88 22.9333 23.0667 24.2533 22 25.32C20.9333 26.36 19.64 27.1467 18.12 27.68C16.6 28.1867 14.9067 28.44 13.04 28.44ZM31.5944 -1.90735e-06H42.5144C44.701 -1.90735e-06 46.701 0.359998 48.5144 1.08C50.3544 1.77333 51.9277 2.74667 53.2344 4C54.5677 5.25333 55.5944 6.73333 56.3144 8.44C57.0344 10.12 57.3944 11.9467 57.3944 13.92V14C57.3944 15.9733 57.0344 17.8133 56.3144 19.52C55.5944 21.2267 54.5677 22.7067 53.2344 23.96C51.9277 25.2133 50.3544 26.2 48.5144 26.92C46.701 27.64 44.701 28 42.5144 28H31.5944V-1.90735e-06ZM37.7544 5.56V22.44H42.5144C43.7677 22.44 44.9144 22.24 45.9544 21.84C46.9944 21.44 47.8744 20.8667 48.5944 20.12C49.341 19.3733 49.9144 18.4933 50.3144 17.48C50.741 16.4667 50.9544 15.3333 50.9544 14.08V14C50.9544 12.7733 50.741 11.64 50.3144 10.6C49.9144 9.56 49.341 8.66667 48.5944 7.92C47.8744 7.17333 46.9944 6.6 45.9544 6.2C44.9144 5.77333 43.7677 5.56 42.5144 5.56H37.7544ZM62.8834 -1.90735e-06H75.8834C79.1101 -1.90735e-06 81.5501 0.826665 83.2034 2.48C84.4834 3.76 85.1234 5.34667 85.1234 7.24V7.32C85.1234 8.12 85.0168 8.82667 84.8034 9.44C84.6168 10.0533 84.3501 10.6133 84.0034 11.12C83.6834 11.6 83.2968 12.0267 82.8434 12.4C82.4168 12.7733 81.9501 13.0933 81.4434 13.36C83.0701 13.9733 84.3501 14.8133 85.2834 15.88C86.2168 16.92 86.6834 18.3733 86.6834 20.24V20.32C86.6834 21.6 86.4301 22.72 85.9234 23.68C85.4434 24.64 84.7368 25.44 83.8034 26.08C82.8968 26.72 81.7901 27.2 80.4834 27.52C79.2034 27.84 77.7768 28 76.2034 28H62.8834V-1.90735e-06ZM79.0034 8.28C79.0034 7.34667 78.6568 6.64 77.9634 6.16C77.2701 5.65333 76.2701 5.4 74.9634 5.4H68.8834V11.32H74.5634C75.9234 11.32 77.0034 11.0933 77.8034 10.64C78.6034 10.16 79.0034 9.4 79.0034 8.36V8.28ZM80.5634 19.48C80.5634 18.5467 80.2034 17.8133 79.4834 17.28C78.7634 16.72 77.6034 16.44 76.0034 16.44H68.8834V22.6H76.2034C77.5634 22.6 78.6301 22.36 79.4034 21.88C80.1768 21.3733 80.5634 20.6 80.5634 19.56V19.48Z" fill="#FA1451"/>
</svg>
