<svg width="40" height="40" viewBox="0 0 40 40" fill="none" xmlns="http://www.w3.org/2000/svg">
<g clip-path="url(#clip0)">
<path d="M19.715 19.2681C22.3621 19.2681 24.6542 18.3187 26.5271 16.4456C28.4 14.5727 29.3494 12.2811 29.3494 9.63375C29.3494 6.98728 28.4 4.69542 26.5268 2.82195C24.6536 0.949398 22.3618 0 19.715 0C17.0676 0 14.776 0.949398 12.9031 2.82225C11.0303 4.69511 10.0806 6.98697 10.0806 9.63375C10.0806 12.2811 11.0303 14.573 12.9034 16.4459C14.7766 18.3184 17.0685 19.2681 19.715 19.2681Z" fill="#FA1451"/>
<path d="M36.5726 30.7579C36.5186 29.9785 36.4093 29.1283 36.2485 28.2305C36.0861 27.3259 35.8771 26.4708 35.6268 25.6893C35.3683 24.8815 35.0168 24.0838 34.5822 23.3193C34.1312 22.5258 33.6014 21.8349 33.0069 21.2664C32.3853 20.6716 31.6241 20.1934 30.744 19.8446C29.8669 19.4976 28.895 19.3218 27.8552 19.3218C27.4469 19.3218 27.052 19.4893 26.2894 19.9859C25.82 20.292 25.271 20.646 24.6582 21.0375C24.1342 21.3714 23.4244 21.6842 22.5476 21.9674C21.6922 22.2442 20.8237 22.3845 19.9664 22.3845C19.1092 22.3845 18.241 22.2442 17.3846 21.9674C16.5088 21.6845 15.799 21.3717 15.2756 21.0378C14.6686 20.6499 14.1193 20.2959 13.6429 19.9856C12.8812 19.489 12.486 19.3215 12.0776 19.3215C11.0376 19.3215 10.0659 19.4976 9.18915 19.8449C8.30963 20.1931 7.54822 20.6713 6.92596 21.2667C6.33179 21.8355 5.8017 22.5261 5.35126 23.3193C4.91699 24.0838 4.56543 24.8812 4.30664 25.6896C4.0567 26.4711 3.84766 27.3259 3.6853 28.2305C3.52448 29.1271 3.41522 29.9776 3.36121 30.7588C3.30811 31.5242 3.28125 32.3186 3.28125 33.1209C3.28125 35.2089 3.94501 36.8993 5.25391 38.1459C6.54663 39.3761 8.25714 40.0001 10.3372 40.0001H29.5975C31.6776 40.0001 33.3875 39.3764 34.6805 38.1459C35.9897 36.9002 36.6534 35.2095 36.6534 33.1206C36.6531 32.3146 36.626 31.5196 36.5726 30.7579Z" fill="#FA1451"/>
</g>
<defs>
<clipPath id="clip0">
<rect width="40" height="40" fill="white"/>
</clipPath>
</defs>
</svg>
