<svg width="28" height="28" viewBox="0 0 28 28" fill="none" xmlns="http://www.w3.org/2000/svg">
<path d="M15.5464 14.0008L27.6792 1.86794C28.1063 1.44077 28.1063 0.748213 27.6792 0.321105C27.252 -0.106004 26.5594 -0.106058 26.1323 0.321105L13.9995 12.4539L1.86672 0.321105C1.43955 -0.106058 0.746993 -0.106058 0.319884 0.321105C-0.107224 0.748268 -0.107279 1.44083 0.319884 1.86794L12.4527 14.0007L0.319884 26.1335C-0.107279 26.5607 -0.107279 27.2533 0.319884 27.6804C0.533438 27.8939 0.813383 28.0007 1.09333 28.0007C1.37327 28.0007 1.65316 27.8939 1.86677 27.6804L13.9995 15.5476L26.1323 27.6804C26.3458 27.8939 26.6258 28.0007 26.9057 28.0007C27.1857 28.0007 27.4656 27.8939 27.6792 27.6804C28.1063 27.2532 28.1063 26.5607 27.6792 26.1335L15.5464 14.0008Z" fill="white"/>
</svg>
